<svg width="44" height="39" viewBox="0 0 44 39" fill="none" xmlns="http://www.w3.org/2000/svg">
<path d="M1.21196 34.1312V38.053C1.21196 38.594 1.61759 38.9996 2.15857 38.9996H7.36516C7.90616 38.9996 8.31177 38.594 8.31177 38.053V29.5331L4.18716 33.0493C3.37591 33.7256 2.2939 34.1312 1.21191 34.1312L1.21196 34.1312Z" fill="#333333"/>
<path d="M12.9805 25.6788V38.0527C12.9805 38.5937 13.3861 38.9993 13.9271 38.9993H19.1337C19.6747 38.9993 20.0803 38.5936 20.0803 38.0527V21.9599L18.8634 20.7431L12.9805 25.6788Z" fill="#333333"/>
<path d="M31.91 38.0527V21.8924L30.3549 23.2446C29.1381 24.3266 27.515 24.8675 25.8921 24.8675C25.4865 24.8675 25.1483 24.8675 24.7427 24.8001V38.0529C24.7427 38.5939 25.1483 38.9995 25.6893 38.9995H30.8959C31.5043 38.9991 31.9099 38.5934 31.9099 38.0524L31.91 38.0527Z" fill="#333333"/>
<path d="M27.517 19.9316L37.592 11.2767L39.6206 15.1311C39.8909 15.6046 40.3644 15.7395 40.7026 15.6721C41.0408 15.6046 41.4464 15.3339 41.5818 14.8608L43.8806 1.26991C43.948 0.931735 43.8132 0.593555 43.6103 0.390754C43.3401 0.120493 43.0019 0.0525748 42.7312 0.120493L29.2079 2.48731C28.6669 2.55476 28.3966 2.96086 28.3966 3.36647C28.3292 3.70465 28.4641 4.17773 28.9376 4.44845L32.792 6.47706L25.7592 14.3197L20.8908 9.5192C20.8908 9.45129 20.8233 9.38384 20.7554 9.38384C20.3498 9.04566 19.8088 8.84285 19.2678 8.84285H19.065C18.4566 8.91029 17.9156 9.18103 17.51 9.6541L1.01152 29.3305C0.944076 29.4659 0.944076 29.6008 1.01152 29.6687C1.14689 29.8041 1.28178 29.8041 1.41715 29.6687L19.1327 14.7931L24.0686 19.7289C25.0157 20.743 26.5707 20.8109 27.5173 19.9318L27.517 19.9316Z" fill="#4DAAA7"/>
</svg>
