<svg width="190" height="173" viewBox="0 0 190 173" fill="none" xmlns="http://www.w3.org/2000/svg">
<path d="M56.6298 85.0966C58.864 100.485 48.1752 114.776 32.754 117.019C17.3328 119.262 3.01476 108.602 0.780609 93.2174C-1.45818 77.8286 9.23516 63.5384 24.6564 61.2996C40.0776 59.0515 54.3957 69.7078 56.6298 85.0966Z" fill="#F5F5F5"/>
<path d="M49.9926 86.0595C51.6983 97.7864 43.5497 108.674 31.7949 110.385C20.0448 112.095 9.13356 103.97 7.42782 92.2474C5.72207 80.5204 13.8707 69.6278 25.6255 67.922C37.3803 66.2116 48.2869 74.3325 49.9926 86.0595Z" fill="#EBEBEB"/>
<path d="M49.9146 85.3946C49.7848 85.4177 49.5577 84.4954 48.9783 82.9148C48.3942 81.3434 47.407 79.0954 45.5761 76.75C44.6629 75.5819 43.5412 74.3953 42.197 73.2921C40.8435 72.2029 39.2769 71.1831 37.497 70.3859C36.6116 69.9826 35.6753 69.6257 34.6973 69.3476C33.7193 69.0649 32.7042 68.8331 31.652 68.6987C30.6045 68.5643 29.5291 68.4808 28.4352 68.5133C27.3413 68.5411 26.2381 68.6431 25.1303 68.8331C24.0271 69.0371 22.9518 69.3198 21.9181 69.6674C20.8845 70.0197 19.9018 70.4647 18.9609 70.9514C18.02 71.4381 17.1485 72.0082 16.3235 72.6061C15.4984 73.2041 14.7429 73.8623 14.0476 74.5436C12.6524 75.9017 11.5307 77.3989 10.6361 78.8868C9.75081 80.384 9.11116 81.8857 8.65227 83.2948C7.74378 86.1269 7.59082 88.5789 7.58155 90.2522C7.58155 91.9348 7.68816 92.8757 7.55837 92.8989C7.46567 92.9175 7.14121 92.009 6.94189 90.2847C6.75185 88.5697 6.71941 86.0018 7.5352 82.9657C7.94309 81.4547 8.55957 79.8324 9.44952 78.2101C10.3487 76.5924 11.5029 74.9608 12.9723 73.4683C13.7046 72.722 14.5019 71.9989 15.3779 71.3454C16.254 70.6872 17.1856 70.0614 18.1961 69.5284C19.2019 68.9907 20.2587 68.504 21.3758 68.1193C22.4883 67.7346 23.6517 67.4286 24.8383 67.2108C26.0295 67.0068 27.2254 66.8956 28.4027 66.8724C29.5801 66.8492 30.7435 66.942 31.8745 67.0996C33.0055 67.2525 34.0994 67.5167 35.1469 67.8365C36.1991 68.1517 37.1957 68.555 38.1366 69.0046C40.0278 69.8992 41.6732 71.0348 43.0777 72.24C44.4683 73.459 45.6085 74.7708 46.5124 76.0454C48.3247 78.618 49.1776 81.0421 49.5901 82.7154C49.998 84.4166 50.0073 85.3807 49.9146 85.3946Z" fill="#E0E0E0"/>
<path d="M32.9731 101.498L33.5664 105.197L30.2662 105.726L29.6914 102.129C26.3911 102.453 23.0909 101.934 21.0468 100.803L22.2195 96.4831C24.0689 97.4426 26.5858 97.9525 29.0007 97.8042L28.1154 92.2883C24.3053 91.987 20.0178 91.4169 19.2623 86.6937C18.7014 83.1941 20.764 79.7826 25.8859 78.3503L25.2972 74.6839L28.6021 74.1555L29.1769 77.757C31.6845 77.5577 34.2014 77.8312 36.2038 78.698L35.2026 83.0272C33.3624 82.3412 31.5594 82.0539 29.8722 82.1187L30.7714 87.7319C34.5722 88.0008 38.7995 88.5802 39.5458 93.2385C40.0927 96.6686 38.0579 100.043 32.9731 101.498ZM27.3321 87.4307L26.5812 82.7399C24.894 83.4166 24.3563 84.4873 24.5278 85.5766C24.7132 86.7354 25.8071 87.2035 27.3321 87.4307ZM34.2895 94.4808C34.1041 93.322 33.0473 92.8492 31.5455 92.5803L32.2732 97.1367C33.8677 96.5156 34.4563 95.5376 34.2895 94.4808Z" fill="#E0E0E0"/>
<path d="M187.159 58.9713C192.497 67.7776 189.667 79.2532 180.844 84.6004C172.017 89.9517 160.537 87.1514 155.198 78.3451C149.86 69.5388 152.689 58.0674 161.513 52.7161C170.34 47.3647 181.82 50.165 187.159 58.9713Z" fill="#F5F5F5"/>
<path d="M183.359 61.2774C187.426 67.9888 185.272 76.7317 178.544 80.8075C171.82 84.8833 163.068 82.7504 159.001 76.039C154.934 69.3277 157.088 60.5847 163.812 56.5089C170.54 52.4331 179.291 54.566 183.359 61.2774Z" fill="#EBEBEB"/>
<path d="M183.127 60.8987C183.055 60.9452 182.679 60.4425 181.919 59.6274C181.155 58.8207 179.976 57.7056 178.253 56.7469C177.395 56.2696 176.403 55.8345 175.301 55.5093C174.194 55.1968 172.978 54.9771 171.685 54.9518C171.039 54.9349 170.38 54.9602 169.708 55.0447C169.041 55.125 168.361 55.2475 167.685 55.4375C167.01 55.6234 166.334 55.8557 165.675 56.1555C165.016 56.4554 164.37 56.8018 163.745 57.203C163.124 57.6127 162.541 58.0604 162 58.5419C161.46 59.0234 160.974 59.5471 160.53 60.0878C160.083 60.6284 159.698 61.1986 159.352 61.7772C159.002 62.3559 158.714 62.9514 158.465 63.5469C157.967 64.738 157.667 65.9375 157.506 67.0779C157.354 68.2183 157.35 69.2995 157.435 70.2794C157.612 72.2434 158.153 73.7766 158.579 74.7987C159.014 75.8251 159.323 76.3741 159.246 76.4206C159.192 76.4586 158.765 75.9856 158.195 74.9888C157.637 73.992 156.953 72.4335 156.666 70.3723C156.526 69.346 156.48 68.1972 156.602 66.9765C156.733 65.7601 157.016 64.4635 157.527 63.1752C157.781 62.529 158.081 61.887 158.444 61.2577C158.807 60.6284 159.217 60.0075 159.694 59.4204C160.167 58.8333 160.687 58.2631 161.27 57.7394C161.848 57.2157 162.478 56.73 163.145 56.2907C163.821 55.8599 164.518 55.484 165.231 55.163C165.945 54.842 166.676 54.6012 167.407 54.407C168.137 54.2084 168.872 54.0902 169.59 54.0142C170.312 53.9339 171.026 53.9212 171.715 53.955C173.1 54.0099 174.397 54.2802 175.562 54.6519C176.728 55.0363 177.759 55.5389 178.641 56.088C180.411 57.1861 181.556 58.4448 182.24 59.3613C182.928 60.2778 183.182 60.8649 183.127 60.8987Z" fill="#E0E0E0"/>
<path d="M176.954 75.0828L178.271 77.1862L176.392 78.3603L175.112 76.3161C173.182 77.3678 171.036 77.9 169.499 77.7395L169.098 74.804C170.47 74.9096 172.139 74.5717 173.575 73.8579L171.611 70.724C169.212 71.5223 166.449 72.2867 164.768 69.6005C163.522 67.6112 163.898 64.9967 166.652 62.8047L165.347 60.7224L167.222 59.5482L168.502 61.5967C169.98 60.828 171.585 60.3465 173.03 60.3549L173.537 63.2524C172.24 63.3073 171.062 63.5987 170.052 64.076L172.05 67.269C174.44 66.4539 177.165 65.7147 178.82 68.3587C180.049 70.2974 179.678 72.878 176.954 75.0828ZM169.883 67.9575L168.215 65.2924C167.362 66.1413 167.307 66.9312 167.695 67.552C168.105 68.2109 168.891 68.2151 169.883 67.9575ZM175.944 70.4621C175.53 69.8032 174.766 69.7906 173.782 70.0144L175.403 72.6035C176.214 71.8095 176.32 71.0619 175.944 70.4621Z" fill="#E0E0E0"/>
<path d="M135.331 21.4808C129.905 24.8989 122.727 23.2639 119.298 17.8276C115.87 12.3913 117.49 5.20754 122.916 1.78939C128.342 -1.63386 135.52 0.00112509 138.949 5.44257C142.377 10.8789 140.757 18.0575 135.331 21.4808Z" fill="#F5F5F5"/>
<path d="M133.862 19.1329C129.729 21.7386 124.257 20.492 121.646 16.3483C119.035 12.2046 120.266 6.73253 124.4 4.12677C128.533 1.52101 134.005 2.76769 136.616 6.91136C139.232 11.055 137.996 16.5271 133.862 19.1329Z" fill="#EBEBEB"/>
<path d="M134.116 18.9853C134.086 18.9393 134.397 18.6992 134.893 18.2189C135.388 17.7335 136.068 16.9876 136.645 15.9044C136.931 15.3628 137.192 14.7446 137.381 14.0497C137.565 13.3548 137.688 12.5986 137.688 11.7914C137.688 11.3877 137.667 10.979 137.611 10.56C137.555 10.1462 137.473 9.72208 137.345 9.30312C137.223 8.88415 137.069 8.46519 136.875 8.06155C136.681 7.6528 136.456 7.25427 136.201 6.87107C135.94 6.48787 135.654 6.13022 135.348 5.79811C135.041 5.46601 134.709 5.16967 134.367 4.89887C134.024 4.62808 133.667 4.39305 133.299 4.18357C132.936 3.97408 132.563 3.80036 132.19 3.65219C131.444 3.35585 130.693 3.18214 129.983 3.09528C129.273 3.01353 128.598 3.02375 127.99 3.08506C126.769 3.2179 125.819 3.57045 125.19 3.84635C124.557 4.12736 124.219 4.32663 124.189 4.28064C124.168 4.24999 124.454 3.97408 125.073 3.61132C125.686 3.25367 126.651 2.80915 127.929 2.60989C128.567 2.51281 129.283 2.47194 130.044 2.53325C130.805 2.59967 131.613 2.76317 132.42 3.06462C132.824 3.21279 133.227 3.39673 133.626 3.61643C134.019 3.83613 134.413 4.08138 134.786 4.37261C135.159 4.66384 135.516 4.98062 135.848 5.33317C136.18 5.69082 136.492 6.07402 136.773 6.48787C137.049 6.90173 137.289 7.33602 137.499 7.77543C137.703 8.21483 137.866 8.66956 137.994 9.11918C138.127 9.5688 138.209 10.0286 138.265 10.4783C138.321 10.9279 138.337 11.3724 138.326 11.8016C138.306 12.6651 138.153 13.4774 137.933 14.2081C137.708 14.9387 137.402 15.5876 137.075 16.1394C136.41 17.2532 135.639 17.9788 135.077 18.4182C134.499 18.8525 134.137 19.016 134.116 18.9853Z" fill="#E0E0E0"/>
<path d="M125.192 15.2984L123.899 16.1414L123.148 14.9867L124.41 14.1641C123.736 12.9737 123.378 11.6452 123.46 10.6847L125.284 10.4037C125.233 11.262 125.462 12.2941 125.922 13.1831L127.854 11.9262C127.332 10.4394 126.827 8.7278 128.477 7.64973C129.703 6.85268 131.333 7.05705 132.733 8.74824L134.016 7.91031L134.767 9.06502L133.505 9.88762C134 10.8022 134.317 11.7934 134.327 12.6926L132.529 13.0401C132.478 12.2328 132.283 11.5022 131.977 10.8788L130.01 12.1562C130.546 13.6328 131.037 15.324 129.407 16.3867C128.206 17.1735 126.592 16.9692 125.192 15.2984ZM129.55 10.8175L131.19 9.74967C130.654 9.22852 130.158 9.20297 129.78 9.45333C129.376 9.71391 129.381 10.2044 129.55 10.8175ZM128.058 14.6189C128.462 14.3532 128.462 13.878 128.313 13.2649L126.719 14.3021C127.22 14.8028 127.69 14.859 128.058 14.6189Z" fill="#E0E0E0"/>
<path d="M134.037 80.392C134.037 80.392 114.316 66.4159 111.82 65.0432C109.442 63.7339 101.895 62.7836 101.219 62.6189L87.7075 59.6792L67.0623 60.2958L61.1407 63.8564L46.1595 70.7578C42.0752 72.6373 38.8568 75.9994 37.1546 80.1597L27.6895 103.267L51.1687 110.211L51.8994 134.586L46.3622 172.987H115.089L111.63 99.3857L118.785 100.961L134.037 80.392Z" fill="#086663"/>
<path d="M51.5788 100.395C51.5788 100.395 51.3338 100.576 50.8523 100.855C50.3751 101.121 49.6486 101.523 48.656 101.658C47.6593 101.797 46.4724 101.556 45.2307 101.159C43.9805 100.767 42.6669 100.158 41.328 99.4615C39.9891 98.7646 38.7347 98.0592 37.5605 97.489C36.3863 96.9188 35.2924 96.4796 34.3421 96.205C33.396 95.922 32.602 95.7953 32.0529 95.7404C31.7783 95.7109 31.5629 95.6982 31.4193 95.694C31.2757 95.6855 31.1997 95.6771 31.1997 95.6771C31.1997 95.6771 31.508 95.6602 32.0571 95.7066C32.6104 95.7531 33.4044 95.8671 34.359 96.1459C35.3135 96.4162 36.4159 96.847 37.5943 97.4172C38.7769 97.9832 40.0313 98.6885 41.3702 99.3854C42.7049 100.082 44.0142 100.686 45.256 101.083C46.4935 101.48 47.6677 101.725 48.6518 101.594C49.6317 101.468 50.3539 101.079 50.8354 100.821C51.0762 100.686 51.262 100.576 51.3845 100.5C51.507 100.433 51.5788 100.395 51.5788 100.395Z" fill="white"/>
<path d="M50.5957 89.0115C50.5957 89.0115 50.5408 89.0157 50.4394 89.0115C50.3127 89.0073 50.1649 88.9988 49.9917 88.9904C49.6031 88.9735 49.0414 88.9313 48.3487 88.8595C46.9633 88.7243 45.0585 88.4498 42.9847 87.9767C40.9151 87.4995 39.0778 86.9124 37.7727 86.4266C37.118 86.1859 36.5943 85.9789 36.2395 85.8269C36.0832 85.7593 35.9481 85.7002 35.8298 85.6495C35.7369 85.6073 35.6904 85.5819 35.6904 85.5819C35.6904 85.5819 35.7411 85.5946 35.8383 85.6326C35.9565 85.6791 36.0959 85.7297 36.2564 85.7931C36.6196 85.9367 37.1434 86.1352 37.798 86.3675C39.1074 86.8363 40.9404 87.4108 43.0058 87.888C45.0711 88.3611 46.976 88.6441 48.3571 88.7961C49.0498 88.8721 49.6073 88.9228 49.9959 88.9524C50.1691 88.9651 50.3127 88.9777 50.4436 88.9904C50.545 88.9988 50.5957 89.0115 50.5957 89.0115Z" fill="white"/>
<path d="M65.3789 65.0444C65.3789 65.0444 65.2057 65.3316 64.8298 65.8131C64.4581 66.2946 63.8499 66.9451 62.9968 67.6209C62.1478 68.3009 61.0285 68.9766 59.7192 69.5806C58.4099 70.1846 56.9147 70.7083 55.3266 71.1856C53.7343 71.6544 52.2096 72.0726 50.8453 72.5245C49.4811 72.9722 48.2774 73.4495 47.3059 73.9352C46.3345 74.4209 45.5911 74.8897 45.1012 75.2488C44.8478 75.4177 44.6746 75.574 44.5437 75.6711C44.4169 75.7683 44.3494 75.8147 44.3494 75.8147C44.3494 75.8147 44.5986 75.5867 45.0843 75.2192C45.57 74.8517 46.3134 74.3702 47.2806 73.8761C48.2478 73.3777 49.4558 72.8962 50.82 72.44C52.1842 71.9839 53.709 71.5657 55.3013 71.0927C56.8894 70.6196 58.3803 70.0959 59.6854 69.5004C60.9863 68.9006 62.1056 68.2375 62.9588 67.566C63.8119 66.8986 64.4244 66.2608 64.8003 65.7836C65.003 65.5555 65.1255 65.3528 65.2269 65.2303C65.324 65.112 65.3789 65.0444 65.3789 65.0444Z" fill="white"/>
<path d="M107.627 68.1923C107.627 68.1923 107.564 68.1627 107.45 68.0952C107.331 68.0318 107.167 67.922 106.943 67.8122C106.499 67.5714 105.836 67.2547 104.983 66.9632C104.13 66.6676 103.087 66.393 101.913 66.1734C100.738 65.9495 99.4332 65.7764 98.0648 65.5821C95.3448 65.1977 92.8824 64.8472 91.0578 64.5895C90.1877 64.4628 89.4697 64.3572 88.9375 64.277C88.7094 64.2432 88.5193 64.2136 88.3631 64.1883C88.2321 64.1672 88.1646 64.1503 88.1646 64.1503C88.1646 64.1503 88.2364 64.1545 88.3673 64.1714C88.5236 64.1925 88.7179 64.2136 88.9459 64.2432C89.4823 64.315 90.2004 64.4121 91.0704 64.5262C92.895 64.7796 95.3574 65.1175 98.0774 65.4934C99.4459 65.6834 100.751 65.8608 101.925 66.0889C103.104 66.3128 104.147 66.5958 105.004 66.8999C105.862 67.1997 106.521 67.5292 106.96 67.7784C107.399 68.0276 107.627 68.1923 107.627 68.1923Z" fill="white"/>
<path d="M98.0462 72.8572C98.0462 72.8572 97.8899 72.929 97.59 73.0641C97.2901 73.1993 96.8424 73.3894 96.2638 73.6217C95.1023 74.082 93.4086 74.7156 91.263 75.3449C89.1174 75.97 86.5325 76.6204 83.6055 77.0344C80.6785 77.4821 77.4137 77.4821 74.0094 77.3723C70.6051 77.2624 67.3572 77.1146 64.4091 77.3004C61.4652 77.4736 58.8338 77.9847 56.722 78.7027C54.6017 79.4081 53.0221 80.3204 51.9958 81.0215C51.4889 81.3847 51.1003 81.6762 50.8554 81.8916C50.602 82.1027 50.4668 82.2083 50.4668 82.2083C50.4668 82.2083 50.5935 82.0943 50.8427 81.8789C51.0877 81.655 51.472 81.3636 51.9789 80.9919C53.001 80.2781 54.5848 79.3574 56.7051 78.6436C58.8212 77.9171 61.4567 77.3976 64.4048 77.2202C67.3572 77.0301 70.6094 77.178 74.0136 77.2878C77.4179 77.4018 80.6743 77.4018 83.5928 76.9583C86.5156 76.5486 89.1005 75.9066 91.2461 75.29C93.3917 74.6691 95.0896 74.044 96.2511 73.5963C96.834 73.3682 97.2817 73.1866 97.5858 73.0557C97.8857 72.9163 98.0462 72.8572 98.0462 72.8572Z" fill="white"/>
<path d="M104.534 76.9886C104.534 76.9928 104.509 77.0013 104.458 77.0224C104.386 77.0478 104.314 77.0773 104.234 77.1069C104.04 77.1787 103.757 77.2716 103.402 77.373C102.697 77.5715 101.692 77.7953 100.56 77.808C99.4276 77.8207 98.4182 77.6095 97.7128 77.3983C97.3581 77.2927 97.0793 77.1956 96.885 77.1196C96.809 77.09 96.7372 77.0604 96.6654 77.0309C96.6147 77.0097 96.5894 76.9971 96.5894 76.9928C96.5894 76.9886 96.6189 76.9971 96.6696 77.014C96.7414 77.0393 96.8174 77.0604 96.8935 77.0858C97.0877 77.1533 97.3707 77.242 97.7255 77.3392C98.4309 77.5335 99.4319 77.732 100.551 77.7193C101.67 77.7066 102.667 77.4955 103.377 77.3138C103.732 77.2209 104.019 77.1364 104.213 77.0773C104.293 77.052 104.369 77.0309 104.441 77.0097C104.504 76.9928 104.534 76.9844 104.534 76.9886Z" fill="white"/>
<path d="M91.2108 88.9363C91.2108 88.9363 89.1834 89.3629 85.8763 89.857C84.2207 90.1062 82.244 90.3512 80.0435 90.5708C77.8429 90.7778 75.4144 90.9552 72.8633 91.0523C70.3122 91.141 67.8794 91.141 65.6662 91.0946C63.453 91.0354 61.4636 90.9341 59.7953 90.8031C56.4586 90.5497 54.4102 90.271 54.4102 90.271C54.4102 90.271 54.5411 90.2794 54.7861 90.3005C55.0522 90.3259 55.4069 90.3639 55.8589 90.4061C56.7881 90.5033 58.1354 90.6215 59.8038 90.7398C61.4721 90.8623 63.4614 90.9552 65.6704 91.0101C67.8794 91.0523 70.3122 91.0523 72.8633 90.9636C75.4101 90.8665 77.8387 90.6933 80.0392 90.4906C82.2398 90.2752 84.2164 90.0344 85.8721 89.7937C87.5278 89.5572 88.8624 89.3418 89.7832 89.177C90.2309 89.101 90.5815 89.0376 90.8433 88.9954C91.0841 88.9532 91.2108 88.9363 91.2108 88.9363Z" fill="white"/>
<path d="M107.75 87.7371C107.75 87.7371 107.695 87.7455 107.598 87.7455C107.471 87.7498 107.327 87.754 107.158 87.7582C106.774 87.7709 106.221 87.7751 105.536 87.7751C104.168 87.7709 102.276 87.7202 100.194 87.5428C98.1113 87.3612 96.2402 87.0824 94.8929 86.8374C94.2213 86.715 93.6765 86.6094 93.3006 86.5291C93.1358 86.4911 92.9965 86.4615 92.8697 86.4362C92.7726 86.4151 92.7219 86.3982 92.7219 86.3982C92.7219 86.3982 92.7768 86.4024 92.874 86.4193C93.0007 86.4404 93.1401 86.4658 93.309 86.4953C93.7272 86.5714 94.2636 86.6643 94.9055 86.7783C96.2529 87.0064 98.124 87.2767 100.202 87.4541C102.28 87.6315 104.168 87.6906 105.536 87.7117C106.187 87.716 106.732 87.7202 107.154 87.7244C107.323 87.7244 107.467 87.7286 107.593 87.7286C107.695 87.7329 107.75 87.7371 107.75 87.7371Z" fill="white"/>
<path d="M86.6511 105.151C86.6511 105.151 86.5328 105.172 86.3047 105.206C86.0555 105.24 85.7261 105.286 85.3079 105.346C84.8771 105.409 84.3449 105.481 83.7283 105.523C83.1074 105.565 82.4063 105.654 81.6249 105.667C80.8435 105.692 79.9904 105.738 79.0696 105.722C78.6092 105.717 78.1362 105.726 77.6462 105.713C77.1563 105.696 76.6537 105.679 76.1384 105.662C74.0773 105.578 71.8092 105.422 69.4355 105.215C67.0618 105.016 64.8021 104.809 62.741 104.67C60.6799 104.543 58.8257 104.454 57.2629 104.48C56.8744 104.484 56.5027 104.484 56.1521 104.488C55.8016 104.505 55.4721 104.522 55.1596 104.539C54.5387 104.564 54.0065 104.594 53.5757 104.649C53.1575 104.691 52.8239 104.725 52.5747 104.746C52.3466 104.767 52.2241 104.775 52.2241 104.775C52.2241 104.775 52.3424 104.759 52.5705 104.729C52.8197 104.699 53.1533 104.661 53.5715 104.615C54.0065 104.556 54.5387 104.522 55.1596 104.492C55.4721 104.476 55.8016 104.454 56.1521 104.438C56.5027 104.433 56.8744 104.429 57.2672 104.425C58.8299 104.395 60.6883 104.476 62.7494 104.598C64.8106 104.729 67.0702 104.936 69.4439 105.134C71.8176 105.341 74.0815 105.502 76.1426 105.586C76.6579 105.603 77.1605 105.62 77.6505 105.641C78.1404 105.654 78.6135 105.65 79.0738 105.654C79.9904 105.671 80.8435 105.633 81.6249 105.612C82.4063 105.603 83.1074 105.519 83.7241 105.481C84.345 105.447 84.8729 105.379 85.3037 105.32C85.7219 105.27 86.0555 105.227 86.3005 105.198C86.5328 105.16 86.6511 105.151 86.6511 105.151Z" fill="white"/>
<path d="M111.517 100.192C111.517 100.192 111.454 100.204 111.331 100.217C111.183 100.234 111.006 100.251 110.795 100.276C110.326 100.327 109.65 100.382 108.81 100.441C107.133 100.555 104.81 100.639 102.246 100.572C99.6825 100.504 97.3637 100.297 95.6953 100.095C94.8591 99.9932 94.1875 99.9003 93.7229 99.8285C93.5117 99.7947 93.3343 99.7651 93.1907 99.744C93.0682 99.7229 93.0049 99.7102 93.0049 99.7102C93.0049 99.7102 93.0682 99.7144 93.1949 99.7271C93.3428 99.7482 93.5202 99.7693 93.7314 99.7947C94.196 99.858 94.8717 99.9425 95.7038 100.035C97.3721 100.221 99.6867 100.416 102.246 100.483C104.806 100.551 107.129 100.475 108.806 100.378C109.642 100.327 110.322 100.28 110.791 100.242C111.002 100.225 111.179 100.213 111.331 100.2C111.45 100.192 111.517 100.192 111.517 100.192Z" fill="white"/>
<path d="M111.825 115.54C111.825 115.54 111.614 115.532 111.208 115.502C110.803 115.481 110.207 115.418 109.438 115.397C107.901 115.316 105.675 115.299 102.926 115.435C100.176 115.566 96.9153 115.895 93.3125 116.368C89.7055 116.837 85.7522 117.458 81.5877 117.994C77.4232 118.522 73.4276 118.86 69.7868 118.894C66.146 118.928 62.8642 118.67 60.1527 118.197C57.4411 117.728 55.287 117.124 53.8383 116.605C53.4709 116.491 53.1499 116.368 52.8753 116.254C52.605 116.148 52.3727 116.056 52.1784 115.979C51.8025 115.832 51.604 115.747 51.604 115.747C51.604 115.747 51.8025 115.819 52.1826 115.963C52.3769 116.034 52.6092 116.127 52.8838 116.229C53.1583 116.338 53.4793 116.457 53.8468 116.571C55.2955 117.082 57.4495 117.677 60.1611 118.134C62.8727 118.598 66.146 118.847 69.7826 118.814C73.4191 118.78 77.4105 118.438 81.575 117.91C85.7395 117.373 89.6886 116.757 93.2998 116.292C96.9068 115.823 100.172 115.498 102.921 115.376C105.671 115.249 107.901 115.274 109.438 115.363C110.98 115.447 111.825 115.54 111.825 115.54Z" fill="white"/>
<path d="M88.5771 131.307C88.5771 131.307 86.5455 131.654 83.2342 132.009C81.5785 132.19 79.6018 132.351 77.4055 132.477C75.2092 132.591 72.7891 132.663 70.2464 132.646C67.7038 132.625 65.2879 132.52 63.0916 132.372C60.8953 132.215 58.9228 132.025 57.2714 131.823C53.9685 131.421 51.9412 131.046 51.9412 131.046C51.9412 131.046 52.0679 131.058 52.3128 131.092C52.5747 131.13 52.9295 131.181 53.373 131.248C53.8334 131.32 54.3951 131.4 55.0498 131.485C55.7044 131.569 56.452 131.675 57.2756 131.764C58.9271 131.958 60.8995 132.144 63.0958 132.296C65.2921 132.435 67.708 132.541 70.2464 132.562C72.7849 132.574 75.2008 132.507 77.3971 132.397C79.5934 132.275 81.57 132.123 83.2215 131.949C84.0493 131.873 84.7969 131.78 85.4516 131.704C86.1105 131.633 86.6722 131.557 87.1326 131.493C87.5803 131.434 87.9351 131.388 88.1969 131.354C88.4461 131.32 88.5771 131.307 88.5771 131.307Z" fill="white"/>
<path d="M111.56 128.284C111.56 128.284 111.484 128.314 111.336 128.36C111.163 128.411 110.948 128.478 110.686 128.554C110.124 128.723 109.301 128.956 108.287 129.23C106.251 129.775 103.421 130.451 100.258 131.034C97.0943 131.612 94.2053 131.984 92.1104 132.195C91.063 132.301 90.214 132.377 89.6269 132.415C89.3524 132.432 89.1285 132.449 88.9511 132.461C88.7948 132.47 88.7146 132.47 88.7146 132.47C88.7146 132.47 88.7948 132.457 88.9511 132.44C89.1285 132.423 89.3524 132.402 89.6269 132.377C90.214 132.326 91.0629 132.242 92.1062 132.128C94.1969 131.9 97.0816 131.519 100.241 130.941C103.4 130.362 106.23 129.695 108.27 129.167C109.288 128.901 110.112 128.681 110.678 128.521C110.944 128.449 111.159 128.39 111.332 128.339C111.48 128.301 111.56 128.284 111.56 128.284Z" fill="white"/>
<path d="M72.4794 148.922C72.4794 148.922 71.2334 149.137 69.1934 149.243C68.1755 149.302 66.9549 149.306 65.6075 149.247C64.2602 149.175 62.7819 149.032 61.2403 148.778C59.7029 148.517 58.2584 148.17 56.9575 147.799C55.6609 147.414 54.512 147.013 53.5702 146.629C51.678 145.864 50.5671 145.252 50.5671 145.252C50.5671 145.252 50.6389 145.281 50.7783 145.345C50.9388 145.416 51.1331 145.509 51.3739 145.623C51.6315 145.746 51.9483 145.894 52.3199 146.05C52.6916 146.206 53.114 146.401 53.5913 146.574C54.5374 146.954 55.6862 147.347 56.9786 147.727C58.2753 148.094 59.7198 148.436 61.253 148.698C62.7861 148.952 64.2644 149.095 65.6075 149.171C66.9549 149.235 68.1671 149.235 69.185 149.184C69.696 149.175 70.1522 149.129 70.5577 149.104C70.9631 149.078 71.3095 149.045 71.5924 149.011C71.8543 148.985 72.0697 148.96 72.2471 148.943C72.3992 148.926 72.4794 148.922 72.4794 148.922Z" fill="white"/>
<path d="M113.109 147.844C113.109 147.844 112.965 147.874 112.691 147.916C112.399 147.963 111.994 148.026 111.483 148.111C110.435 148.28 108.915 148.508 107.035 148.778C103.276 149.314 98.0686 149.982 92.3033 150.556C86.5338 151.126 81.3007 151.498 77.5079 151.705C75.6115 151.81 74.0783 151.887 73.0139 151.925C72.4986 151.946 72.0889 151.958 71.7933 151.971C71.5145 151.979 71.3667 151.979 71.3667 151.979C71.3667 151.979 71.5145 151.967 71.7933 151.95C72.0889 151.933 72.4986 151.912 73.0139 151.887C74.0909 151.827 75.6199 151.743 77.5037 151.637C81.2923 151.409 86.5254 151.033 92.2949 150.463C98.0601 149.889 103.264 149.234 107.027 148.71C108.894 148.444 110.41 148.225 111.479 148.073C111.99 147.997 112.395 147.937 112.687 147.895C112.961 147.861 113.109 147.844 113.109 147.844Z" fill="white"/>
<path d="M115.32 163.4C115.32 163.4 114.395 163.594 112.714 163.869C111.029 164.143 108.583 164.485 105.547 164.739C102.506 164.992 98.8732 165.132 94.8396 165.001C90.8061 164.87 86.3924 164.422 81.7759 163.856C77.1552 163.29 72.7584 162.72 68.7417 162.403C64.725 162.078 61.0885 162.014 58.0432 162.167C54.998 162.323 52.5525 162.669 50.8757 162.986C50.0394 163.146 49.389 163.282 48.954 163.387C48.5147 163.489 48.2866 163.535 48.2866 163.535C48.2866 163.535 48.5147 163.476 48.9497 163.37C49.3848 163.256 50.031 163.117 50.8673 162.952C52.5398 162.623 54.9895 162.268 58.0348 162.103C61.08 161.947 64.7208 162.002 68.7417 162.323C72.7626 162.631 77.1637 163.201 81.7801 163.767C86.3966 164.333 90.8061 164.785 94.8354 164.92C98.8648 165.056 102.497 164.92 105.534 164.68C108.571 164.435 111.02 164.101 112.701 163.839C113.542 163.704 114.197 163.598 114.64 163.518C115.088 163.434 115.32 163.4 115.32 163.4Z" fill="white"/>
<path d="M127.7 76.6117C127.7 76.6117 127.577 76.9454 127.303 77.5324C127.032 78.1153 126.576 78.9347 125.921 79.885C125.271 80.8396 124.401 81.9039 123.379 83.0316C122.357 84.1636 121.182 85.3546 119.991 86.6471C118.805 87.9395 117.744 89.2404 116.908 90.5117C116.076 91.783 115.459 93.0163 115.092 94.106C114.72 95.1915 114.556 96.1165 114.505 96.7585C114.463 97.0795 114.475 97.3287 114.463 97.4976C114.454 97.6666 114.446 97.7553 114.446 97.7553C114.446 97.7553 114.429 97.3963 114.471 96.7543C114.509 96.1123 114.665 95.1831 115.033 94.0849C115.392 92.9868 116.008 91.745 116.841 90.4653C117.677 89.1855 118.733 87.8804 119.924 86.5879C121.119 85.2955 122.293 84.1044 123.315 82.981C124.337 81.8575 125.212 80.7973 125.866 79.8512C126.525 78.9094 126.986 78.0984 127.264 77.5198C127.417 77.2368 127.505 77.0003 127.581 76.8482C127.657 76.6919 127.7 76.6117 127.7 76.6117Z" fill="white"/>
<path d="M108.258 83.8909C108.258 83.8909 108.305 83.8529 108.402 83.7853C108.52 83.705 108.66 83.6121 108.824 83.4981C109.192 83.2573 109.711 82.8814 110.336 82.4042C110.966 81.9269 111.684 81.3229 112.448 80.6133C113.208 79.8995 114.007 79.0802 114.792 78.1636C115.569 77.2429 116.254 76.3221 116.841 75.4605C117.415 74.5904 117.901 73.7879 118.273 73.091C118.648 72.3983 118.931 71.8239 119.113 71.4227C119.198 71.2411 119.269 71.0932 119.328 70.9623C119.379 70.8567 119.409 70.806 119.409 70.806C119.409 70.806 119.062 71.7226 118.327 73.1206C117.96 73.8217 117.483 74.6326 116.908 75.5069C116.325 76.3728 115.641 77.302 114.86 78.2228C114.074 79.1393 113.268 79.9587 112.503 80.6725C111.73 81.3778 111.008 81.9818 110.374 82.4506C109.111 83.4052 108.258 83.8909 108.258 83.8909Z" fill="white"/>
<path d="M78.0767 103.637C78.0767 103.633 78.1105 103.616 78.178 103.59C78.2583 103.561 78.3596 103.523 78.4821 103.472C78.7524 103.379 79.141 103.21 79.6352 102.982C80.6066 102.501 81.9666 101.673 83.3731 100.325C84.788 98.9907 86.2452 97.1703 87.6517 95.0163C89.0666 92.8622 90.4815 90.4041 91.8204 87.7516C94.5066 82.4383 96.4115 77.3826 97.742 73.7207C98.4093 71.8876 98.9246 70.3966 99.2836 69.3661C99.461 68.8635 99.6004 68.4664 99.7017 68.1792C99.7482 68.0525 99.7862 67.9512 99.8158 67.8709C99.8411 67.8033 99.858 67.7695 99.8622 67.7695C99.8665 67.7695 99.858 67.8075 99.8369 67.8794C99.8116 67.9596 99.782 68.0652 99.744 68.1919C99.6511 68.4791 99.5243 68.8804 99.3638 69.3914C99.0259 70.4304 98.5318 71.9298 97.8813 73.7713C96.5847 77.4501 94.7009 82.5227 92.0063 87.8488C90.6589 90.5096 89.2355 92.972 87.8079 95.1261C86.3846 97.2844 84.9105 99.109 83.466 100.435C82.0384 101.778 80.6489 102.598 79.6605 103.058C79.1579 103.278 78.7651 103.438 78.4864 103.514C78.3596 103.552 78.2541 103.586 78.1738 103.611C78.1147 103.633 78.0767 103.641 78.0767 103.637Z" fill="#455A64"/>
<path d="M77.359 112.576C77.3548 112.571 77.4351 112.508 77.5913 112.398C77.7645 112.28 77.9926 112.124 78.2714 111.925C78.8627 111.511 79.7116 110.912 80.7295 110.126C82.778 108.567 85.4684 106.24 88.3574 103.584C89.8061 102.257 91.1957 101.003 92.3994 99.8034C93.6032 98.6039 94.6126 97.4508 95.3771 96.4202C96.15 95.3939 96.6738 94.4942 97.0074 93.8565C97.1848 93.5439 97.2947 93.2863 97.3834 93.1173C97.4678 92.9484 97.5143 92.8597 97.5227 92.8639C97.5312 92.8681 97.4932 92.9611 97.4214 93.1342C97.3453 93.3074 97.2482 93.5735 97.0835 93.8945C96.7709 94.5449 96.2599 95.4615 95.4996 96.5089C94.7436 97.5564 93.7383 98.7263 92.5388 99.9385C91.3393 101.155 89.9497 102.414 88.501 103.74C85.6078 106.401 82.8962 108.715 80.8182 110.244C79.7834 111.013 78.9218 111.6 78.3136 111.993C78.0095 112.187 77.7687 112.331 77.6082 112.432C77.452 112.533 77.3633 112.584 77.359 112.576Z" fill="#455A64"/>
<path d="M65.9489 157.731C65.9447 157.731 65.9615 157.697 65.9996 157.634C66.0418 157.562 66.0967 157.473 66.1643 157.368C66.3121 157.136 66.5402 156.793 66.8443 156.367C67.4567 155.509 68.3986 154.31 69.6403 152.895C72.145 150.082 75.6506 146.251 79.5152 142.011C83.3883 137.783 86.8939 133.956 89.445 131.173C90.7163 129.804 91.7469 128.689 92.4734 127.904C92.8239 127.532 93.1027 127.236 93.3054 127.021C93.3941 126.928 93.4659 126.856 93.5251 126.797C93.5757 126.746 93.6011 126.721 93.6053 126.725C93.6095 126.73 93.5842 126.759 93.542 126.81C93.487 126.873 93.4195 126.953 93.3392 127.051C93.1449 127.27 92.8788 127.574 92.5367 127.959C91.8229 128.753 90.8093 129.88 89.5591 131.27C87.0206 134.066 83.5319 137.905 79.6757 142.146C75.8069 146.374 72.3055 150.205 69.7586 152.988C68.5042 154.386 67.5454 155.569 66.9161 156.409C66.6035 156.831 66.3628 157.161 66.2023 157.389C66.1263 157.495 66.0671 157.579 66.0207 157.647C65.9742 157.706 65.9531 157.735 65.9489 157.731Z" fill="#455A64"/>
<path d="M105.407 81.8192C105.394 81.8234 105.335 81.5953 105.246 81.1772C105.2 80.9702 105.149 80.7126 105.111 80.4127C105.073 80.1128 105.01 79.7707 104.993 79.3906C104.959 79.0104 104.929 78.5923 104.934 78.1446C104.917 77.6969 104.946 77.2154 104.968 76.7128C105.044 75.7075 105.2 74.601 105.474 73.469C105.762 72.3371 106.142 71.2896 106.547 70.3646C106.763 69.9085 106.961 69.4692 107.189 69.0806C107.396 68.6836 107.62 68.3288 107.827 68.0078C108.021 67.6784 108.237 67.4081 108.41 67.1589C108.583 66.9097 108.748 66.707 108.887 66.5465C109.162 66.2212 109.318 66.0438 109.331 66.0523C109.343 66.0607 109.208 66.255 108.955 66.5971C108.828 66.7661 108.672 66.973 108.507 67.2265C108.342 67.4799 108.139 67.7544 107.954 68.0839C107.755 68.4091 107.544 68.7639 107.345 69.1609C107.13 69.5495 106.94 69.9845 106.729 70.4407C106.336 71.3614 105.969 72.3962 105.681 73.5155C105.407 74.6347 105.25 75.7244 105.162 76.7212C105.136 77.2196 105.098 77.6927 105.107 78.1404C105.098 78.5838 105.12 78.9978 105.141 79.3779C105.149 79.758 105.2 80.0959 105.229 80.3958C105.255 80.6957 105.293 80.9533 105.327 81.1603C105.394 81.5826 105.419 81.8192 105.407 81.8192Z" fill="#455A64"/>
<path d="M111.539 96.9752C111.484 96.9963 110.724 95.3195 109.841 93.2246C108.958 91.1297 108.282 89.4149 108.337 89.3938C108.392 89.3726 109.153 91.0494 110.035 93.1444C110.918 95.2351 111.594 96.9541 111.539 96.9752Z" fill="#455A64"/>
<path d="M51.1648 83.5875C51.131 83.6044 50.8016 83.0004 50.1807 82.0839C49.5598 81.1673 48.618 79.9594 47.41 78.781C46.1978 77.6068 44.9603 76.703 44.0269 76.1116C43.0934 75.5161 42.481 75.2078 42.4979 75.174C42.5063 75.1613 42.6626 75.2289 42.9456 75.3598C43.2286 75.4908 43.6298 75.7019 44.1071 75.9849C45.0701 76.5467 46.3372 77.4463 47.5621 78.6332C48.7827 79.8242 49.7203 81.0618 50.3116 82.0079C50.6073 82.4809 50.8312 82.8695 50.9705 83.1525C51.1057 83.4228 51.1775 83.5791 51.1648 83.5875Z" fill="#455A64"/>
<path d="M67.761 73.5952C67.7526 73.5952 67.7357 73.4305 67.7568 73.1602C67.7779 72.8941 67.8539 72.5224 68.0144 72.1423C68.2256 71.6228 68.5466 71.2426 68.724 71.0695L68.7493 71.0483L68.762 71.0779C68.8127 71.1962 68.8338 71.2595 68.8254 71.2637C68.8169 71.268 68.7831 71.2088 68.7198 71.0948L68.7536 71.099C68.5973 71.2891 68.3016 71.6692 68.0905 72.1761C67.7737 72.9236 67.7906 73.5994 67.761 73.5952Z" fill="#455A64"/>
<path d="M73.3392 76.4965C73.3307 76.4965 73.2843 76.3402 73.2505 76.0742C73.2209 75.8081 73.2125 75.4364 73.2758 75.0351C73.3392 74.6339 73.4575 74.2791 73.5673 74.0384C73.6771 73.7934 73.77 73.6582 73.7785 73.6624C73.8038 73.6751 73.4828 74.2538 73.3603 75.0478C73.2378 75.8419 73.3688 76.4923 73.3392 76.4965Z" fill="#455A64"/>
<path d="M79.4404 76.0146C79.4108 76.0146 79.453 75.4739 79.2799 74.8404C79.1109 74.2068 78.7984 73.7634 78.8237 73.7465C78.8322 73.7422 78.9209 73.8436 79.0349 74.0294C79.1489 74.2153 79.2799 74.494 79.3686 74.815C79.4573 75.136 79.4868 75.4401 79.4826 75.6598C79.4742 75.8794 79.4488 76.0146 79.4404 76.0146Z" fill="#455A64"/>
<path d="M84.758 73.6814C84.7327 73.694 84.551 73.1492 84.1245 72.6086C83.7021 72.0637 83.2206 71.7554 83.2375 71.7343C83.2417 71.7258 83.3684 71.7892 83.5543 71.9243C83.7401 72.0595 83.9766 72.2749 84.192 72.5537C84.4074 72.8324 84.5595 73.1154 84.6482 73.3266C84.7369 73.5378 84.7707 73.6771 84.758 73.6814Z" fill="#455A64"/>
<path d="M88.4429 70.0598C88.4176 70.0767 88.312 69.4136 87.7122 68.9067C87.1251 68.3914 86.4536 68.383 86.4662 68.3534C86.4662 68.3492 86.5043 68.345 86.5761 68.345C86.6479 68.345 86.7534 68.3576 86.8759 68.383C87.1294 68.4379 87.4672 68.5815 87.7671 68.8391C88.067 69.0968 88.2571 69.4136 88.3458 69.6543C88.3922 69.7726 88.4176 69.8739 88.4302 69.9457C88.4471 70.0175 88.4514 70.0555 88.4429 70.0598Z" fill="#455A64"/>
<path d="M90.4152 63.37C90.4025 63.3954 89.9928 62.9603 89.3044 62.8378C88.6159 62.7027 88.0795 62.9646 88.0753 62.9392C88.0542 62.9265 88.599 62.614 89.3171 62.7534C90.0435 62.8801 90.4405 63.3658 90.4152 63.37Z" fill="#455A64"/>
<path d="M64.1001 69.0878C64.0917 69.0878 64.1086 68.9442 64.1888 68.7246C64.269 68.5092 64.4253 68.222 64.6661 67.9601C64.9068 67.6982 65.1771 67.5209 65.3883 67.4237C65.5995 67.3266 65.7389 67.297 65.7431 67.3054C65.7558 67.3308 65.1983 67.5082 64.7337 68.0235C64.2522 68.5303 64.1254 69.1005 64.1001 69.0878Z" fill="#455A64"/>
<path d="M62.7549 64.6413C62.7464 64.637 62.814 64.4976 62.966 64.2991C63.1181 64.1006 63.3588 63.8514 63.6714 63.6402C63.9882 63.4291 64.3092 63.2939 64.5499 63.2306C64.7907 63.163 64.9427 63.1545 64.9427 63.163C64.9511 63.1925 64.3387 63.2897 63.7221 63.7121C63.097 64.126 62.776 64.6582 62.7549 64.6413Z" fill="#455A64"/>
<path d="M52.2647 90.5961C52.2605 90.6003 52.2436 90.575 52.2351 90.6003C52.2224 90.6257 52.2098 90.6763 52.2013 90.7397C52.1802 90.8664 52.1549 91.0607 52.1338 91.3057C52.0831 91.7998 52.0282 92.5221 51.969 93.409C51.8465 95.1872 51.7072 97.6454 51.5762 100.365C51.4453 103.085 51.3482 105.548 51.2848 107.326C51.2552 108.192 51.2341 108.901 51.2172 109.438C51.2088 109.666 51.2003 109.856 51.1919 110.012C51.1834 110.143 51.175 110.211 51.1708 110.211C51.1623 110.211 51.1539 110.143 51.1496 110.012C51.1454 109.856 51.137 109.666 51.1328 109.438C51.1243 108.939 51.1201 108.217 51.1328 107.326C51.1539 105.539 51.2257 103.077 51.3608 100.357C51.4918 97.6369 51.6565 95.1788 51.817 93.4006C51.8972 92.5136 51.9775 91.7914 52.0535 91.2972C52.0915 91.048 52.1295 90.858 52.1633 90.7313C52.1802 90.6679 52.1971 90.6172 52.2224 90.5876C52.2605 90.5496 52.2689 90.6045 52.2647 90.5961Z" fill="#086663"/>
<path d="M98.7798 5.2873C95.2573 4.21027 91.587 7.36533 87.9715 6.65576C85.7752 6.22494 84.1196 4.47213 82.164 3.38243C79.2455 1.7521 75.1148 1.48601 72.1286 3.0023C69.1467 4.51859 67.225 6.13625 66.8153 9.45603C64.0995 7.89751 59.5717 11.3144 58.0259 14.6131C56.4842 17.9118 56.8686 21.3203 57.7471 24.8554C59.255 30.9417 61.9708 36.7239 65.6918 41.7669C66.0212 42.2146 66.5492 42.7088 67.0518 42.4723C67.3982 42.3076 67.5122 41.8767 67.5755 41.4966C68.0951 38.2655 67.6854 34.9669 67.4066 31.7062C67.1278 28.4455 66.9885 25.0835 68.019 21.9749C69.0496 18.8663 71.4782 16.0323 74.6924 15.3987C77.0661 14.9299 79.5285 15.7028 81.6361 16.8854C83.7437 18.0681 85.5978 19.6519 87.6041 20.9993C89.6103 22.3466 91.8657 23.4828 94.2817 23.5884C96.6976 23.6939 99.2867 22.5536 100.317 20.3657C101.348 18.1779 100.191 15.0693 97.8253 14.5666C99.9963 14.3681 101.893 12.4886 102.117 10.3219C102.34 8.1467 100.866 5.92507 98.7798 5.2873Z" fill="#263238"/>
<path d="M87.9196 61.9339L87.5775 54.9395C87.5775 54.9395 96.7935 53.1741 96.5823 43.9032C96.4809 39.4261 95.5221 30.227 94.5549 21.9106C93.5201 12.9649 85.7866 6.31693 76.7903 6.62948L75.8949 6.65904C66.2734 7.55868 61.6654 16.234 62.8311 25.826L65.0485 63.1672C65.4202 69.452 70.7969 74.2543 77.0859 73.9206C83.3834 73.5912 88.2237 68.2314 87.9196 61.9339Z" fill="#FFBE9D"/>
<path d="M87.6172 54.9368C87.6172 54.9368 81.7759 55.6168 75.415 51.9253C75.415 51.9253 78.5025 58.4931 87.7227 57.3358L87.6172 54.9368Z" fill="#EB996E"/>
<path d="M91.4103 28.1965C91.4609 28.8934 90.9076 29.51 90.1812 29.5776C89.4547 29.641 88.8254 29.1299 88.7747 28.433C88.724 27.7361 89.2773 27.1152 90.0038 27.0519C90.7303 26.9843 91.3638 27.4996 91.4103 28.1965Z" fill="#263238"/>
<path d="M92.7654 26.5116C92.6091 26.689 91.5785 25.9837 90.1552 26.0386C88.7318 26.0724 87.7139 26.8411 87.5534 26.6721C87.4731 26.5961 87.6294 26.2793 88.0729 25.933C88.5079 25.5866 89.264 25.2403 90.1509 25.2107C91.0379 25.1854 91.7939 25.4853 92.2374 25.802C92.6851 26.123 92.8456 26.4314 92.7654 26.5116Z" fill="#263238"/>
<path d="M77.4083 29.1677C77.459 29.8646 76.9057 30.4812 76.1792 30.5488C75.4528 30.6122 74.8234 30.1011 74.7728 29.4042C74.7221 28.7073 75.2754 28.0864 76.0018 28.0231C76.7325 27.9555 77.3618 28.4666 77.4083 29.1677Z" fill="#263238"/>
<path d="M78.7458 27.2678C78.5896 27.4452 77.559 26.7399 76.1356 26.7948C74.7123 26.8286 73.6943 27.5973 73.5339 27.4283C73.4536 27.3523 73.6099 27.0355 74.0534 26.6892C74.4884 26.3429 75.2402 25.9965 76.1314 25.967C77.0184 25.9416 77.7744 26.2415 78.2179 26.5583C78.6614 26.8793 78.8219 27.1876 78.7458 27.2678Z" fill="#263238"/>
<path d="M84.2916 37.6531C84.2831 37.5729 85.1616 37.3871 86.5892 37.1548C86.9524 37.1041 87.2946 37.0196 87.3452 36.7704C87.4213 36.5043 87.2565 36.12 87.0665 35.7018C86.6948 34.836 86.302 33.9237 85.8923 32.9691C84.262 29.0791 83.0667 25.8776 83.223 25.81C83.3792 25.7467 84.8322 28.8468 86.4625 32.7368C86.8553 33.6956 87.2312 34.6121 87.5902 35.4864C87.7423 35.8961 87.9957 36.3565 87.831 36.9056C87.7423 37.1801 87.4846 37.3871 87.2523 37.4589C87.02 37.5391 86.8173 37.5476 86.6357 37.5644C85.1954 37.6954 84.3 37.7334 84.2916 37.6531Z" fill="#263238"/>
<path d="M80.0603 38.7839C80.2926 38.7628 80.3475 40.3086 81.7117 41.3603C83.0718 42.4162 84.7105 42.1839 84.7316 42.3993C84.757 42.4965 84.3769 42.7119 83.68 42.7541C83 42.8006 81.9947 42.619 81.1627 41.9728C80.3306 41.3265 79.9547 40.4438 79.8787 39.8103C79.7942 39.1683 79.9547 38.7797 80.0603 38.7839Z" fill="#263238"/>
<path d="M78.6351 19.9664C78.5084 20.3592 77.0808 20.2241 75.4167 20.4859C73.7484 20.714 72.4179 21.2504 72.1856 20.9083C72.08 20.7436 72.3039 20.3719 72.8361 19.9791C73.364 19.5863 74.213 19.202 75.2098 19.0541C76.2108 18.9105 77.1315 19.0372 77.7482 19.2611C78.369 19.4892 78.6858 19.7806 78.6351 19.9664Z" fill="#263238"/>
<path d="M92.0891 22.4031C91.8483 22.7368 90.8558 22.4327 89.6774 22.458C88.4947 22.4411 87.5064 22.7537 87.2657 22.42C87.1601 22.2595 87.3037 21.9301 87.7303 21.6091C88.1484 21.2881 88.8622 21.0135 89.6731 21.0093C90.4841 21.0051 91.1979 21.2754 91.6202 21.5922C92.0468 21.9132 92.1947 22.2426 92.0891 22.4031Z" fill="#263238"/>
<path d="M63.7929 32.6737C63.6324 32.6103 57.3602 31.0138 57.7826 37.3408C58.2092 43.6678 64.4729 41.9361 64.4729 41.7545C64.4729 41.5729 63.7929 32.6737 63.7929 32.6737Z" fill="#FFBE9D"/>
<path d="M62.3891 39.4919C62.3595 39.475 62.2835 39.5764 62.1019 39.6735C61.9245 39.7706 61.6162 39.8467 61.2783 39.7453C60.5941 39.5468 59.9605 38.5204 59.8507 37.3843C59.7958 36.8099 59.8803 36.2524 60.0534 35.7835C60.2139 35.3063 60.4927 34.9641 60.8264 34.8797C61.1558 34.7783 61.4092 34.9641 61.4979 35.1373C61.5951 35.3105 61.5613 35.4372 61.5993 35.4456C61.6162 35.4583 61.726 35.3316 61.6584 35.074C61.6246 34.9515 61.5402 34.8079 61.3839 34.6938C61.2234 34.5798 60.9953 34.5333 60.763 34.5756C60.2773 34.6431 59.8676 35.1204 59.6775 35.6357C59.4579 36.1552 59.3523 36.7803 59.4157 37.4265C59.5424 38.6978 60.2731 39.8467 61.2065 40.0494C61.6584 40.1339 62.0217 39.9776 62.2033 39.8129C62.3849 39.6439 62.4102 39.5003 62.3891 39.4919Z" fill="#EB996E"/>
<path d="M96.4452 19.9108C92.4032 21.1399 87.7783 20.2699 84.4628 17.6512C82.1397 15.8181 80.3067 13.1319 77.4515 12.3632C75.5297 11.8437 73.4306 12.3294 71.7242 13.3515C70.0179 14.3736 68.6579 15.8942 67.5006 17.516C69.4561 22.1621 68.4382 27.4627 67.3908 32.3917C67.2767 32.9366 67.1331 33.5237 66.7065 33.8784C65.9759 34.4824 64.8397 34.0685 64.1639 33.4096C63.0784 32.3537 62.6181 30.8205 62.3013 29.338C61.5748 25.9633 61.3636 22.4493 62.0014 19.0619C62.6392 15.6703 64.1555 12.4054 66.5629 9.9346C69.5744 6.84711 73.8867 5.14921 78.1949 5.06473C82.5072 4.98026 86.7858 6.45009 90.3167 8.92515C91.9555 10.074 93.476 11.4762 94.363 13.2713" fill="#263238"/>
<path d="M101.525 7.42584C101.525 7.42584 101.571 7.62013 101.487 7.97914C101.406 8.3297 101.178 8.85344 100.646 9.31804C100.122 9.78264 99.2862 10.1121 98.3063 10.1923C97.8163 10.2303 97.2884 10.2346 96.7309 10.1501C96.1776 10.0614 95.5862 9.87133 95.0921 9.45742C94.6106 9.05617 94.2093 8.42685 94.2389 7.69616C94.26 6.95702 94.8344 6.3108 95.5271 6.03204C95.8777 5.88421 96.2663 5.81241 96.6633 5.8462C97.0561 5.87999 97.4531 6.04471 97.7699 6.29813C98.4203 6.80497 98.7624 7.64125 98.792 8.48176C98.83 9.33493 98.471 10.1966 97.8755 10.8428C97.2799 11.4932 96.4859 11.9578 95.6243 12.2239C93.8841 12.7688 91.9412 12.5027 90.1884 11.8269C88.4187 11.1553 86.8644 10.1501 85.403 9.17021C83.9417 8.19455 82.5225 7.2569 81.0569 6.60646C79.5997 5.94334 78.0835 5.6139 76.6685 5.69837C75.2536 5.78285 73.9696 6.22633 72.9137 6.80497C70.7808 7.98759 69.5601 9.63481 68.8463 10.771C68.4873 11.3496 68.2466 11.8227 68.0903 12.1437C67.934 12.4647 67.8538 12.6378 67.8411 12.6336C67.8369 12.6336 67.8496 12.5871 67.8833 12.4984C67.9171 12.414 67.9636 12.283 68.0354 12.1183C68.1748 11.7846 68.3986 11.2989 68.745 10.7076C69.4334 9.54189 70.6414 7.84398 72.8123 6.61068C73.8894 6.0067 75.1987 5.53787 76.6601 5.44073C78.1215 5.33936 79.6927 5.67303 81.1836 6.34037C82.683 6.99926 84.1148 7.94113 85.5804 8.91257C87.0418 9.88823 88.575 10.8766 90.3067 11.5312C92.0173 12.1943 93.8841 12.4435 95.5398 11.9283C96.355 11.6748 97.1068 11.2398 97.6601 10.6358C98.2134 10.0361 98.5386 9.26313 98.509 8.48598C98.4879 7.71728 98.1753 6.96124 97.6052 6.51354C97.0519 6.04049 96.262 6.0067 95.6369 6.27279C95.0076 6.52198 94.5134 7.08373 94.4923 7.70883C94.4585 8.33393 94.8091 8.91257 95.2484 9.28847C95.6961 9.6686 96.2494 9.85866 96.7773 9.95158C97.3095 10.0403 97.829 10.0445 98.3063 10.0149C99.265 9.95581 100.068 9.65593 100.579 9.22512C101.098 8.79431 101.339 8.30436 101.436 7.96647C101.525 7.62013 101.504 7.42584 101.525 7.42584Z" fill="#455A64"/>
<path d="M57.0787 20.1063C57.0998 20.0387 57.8009 20.4442 59.03 20.5413C59.6424 20.5835 60.3773 20.5117 61.1461 20.2456C61.9148 19.9922 62.7172 19.5572 63.4817 19.0208C65.0107 17.9142 65.8385 16.3219 66.1722 15.1477C66.5185 13.9566 66.4636 13.1668 66.5228 13.171C66.5396 13.171 66.5692 13.3653 66.5734 13.7201C66.5734 14.0749 66.5354 14.5902 66.3834 15.2068C66.0962 16.4317 65.2641 18.1127 63.6633 19.2742C62.8693 19.836 62.0457 20.271 61.2305 20.5202C60.4238 20.782 59.6424 20.8327 59.0089 20.7609C58.3711 20.6849 57.8769 20.516 57.556 20.3724C57.235 20.2287 57.0702 20.1232 57.0787 20.1063Z" fill="#455A64"/>
<path d="M57.5343 24.6777C57.5427 24.6186 58.2861 24.758 59.4771 24.6482C60.6598 24.5468 62.307 24.1202 63.7937 23.0643C65.2762 22.0042 66.2181 20.585 66.6996 19.4995C67.1937 18.4098 67.3035 17.658 67.3627 17.6707C67.3796 17.6749 67.3711 17.8608 67.312 18.1986C67.2529 18.5365 67.1304 19.018 66.9023 19.584C66.463 20.7202 65.5169 22.2153 63.9753 23.3135C62.4337 24.4116 60.7104 24.8171 59.494 24.8636C58.8816 24.8889 58.3874 24.8509 58.0495 24.796C57.7116 24.7495 57.53 24.6988 57.5343 24.6777Z" fill="#455A64"/>
<path d="M74.2092 33.4971C74.1246 33.5183 74.04 33.459 74.0146 33.3659C73.9934 33.2728 74.0442 33.1839 74.1288 33.1627C74.2135 33.1416 74.2981 33.2008 74.3235 33.2939C74.3447 33.3871 74.2939 33.4802 74.2092 33.4971Z" fill="#EB996E"/>
<path d="M76.9031 32.7885C76.8185 32.8097 76.7296 32.7377 76.7042 32.6319C76.6788 32.5261 76.7253 32.4245 76.81 32.4034C76.8946 32.3822 76.9835 32.4541 77.0089 32.56C77.0343 32.6658 76.9878 32.7673 76.9031 32.7885Z" fill="#EB996E"/>
<path d="M78.7235 32.6772C78.639 32.6899 78.5503 32.5885 78.5292 32.4491C78.5081 32.3098 78.5588 32.1831 78.6432 32.1704C78.7277 32.1577 78.8164 32.2591 78.8375 32.3985C78.8629 32.5378 78.808 32.6603 78.7235 32.6772Z" fill="#EB996E"/>
<path d="M75.6088 35.1575C75.52 35.1617 75.448 35.1194 75.448 35.0644C75.448 35.0093 75.5157 34.9628 75.6004 34.9585C75.6892 34.9543 75.7612 34.9966 75.7612 35.0517C75.7612 35.1109 75.6935 35.1575 75.6088 35.1575Z" fill="#EB996E"/>
<path d="M78.0882 34.4919C78.0035 34.5046 77.9231 34.4326 77.9104 34.3353C77.8977 34.238 77.957 34.1491 78.0458 34.1406C78.1305 34.1321 78.2109 34.1999 78.2236 34.2972C78.2321 34.3903 78.1728 34.4792 78.0882 34.4919Z" fill="#EB996E"/>
<path d="M91.0022 32.4877C90.9176 32.5088 90.8287 32.4453 90.8075 32.3522C90.7864 32.2549 90.8372 32.1618 90.9218 32.1448C91.0065 32.1237 91.0953 32.1872 91.1165 32.2803C91.1377 32.3734 91.0869 32.4665 91.0022 32.4877Z" fill="#EB996E"/>
<path d="M92.8806 32.2539C92.7959 32.2666 92.7113 32.1862 92.6986 32.0762C92.6859 31.9661 92.7409 31.8688 92.8298 31.8603C92.9144 31.8476 92.9991 31.928 93.0118 32.0381C93.0245 32.1481 92.9652 32.2455 92.8806 32.2539Z" fill="#EB996E"/>
<path d="M89.3758 32.5909C89.2912 32.612 89.2065 32.5655 89.1896 32.4935C89.1727 32.4173 89.2277 32.3412 89.3123 32.3242C89.397 32.3031 89.4816 32.3496 89.4986 32.4216C89.5155 32.4978 89.4605 32.5739 89.3758 32.5909Z" fill="#EB996E"/>
<path d="M90.8324 34.3972C90.7562 34.4353 90.6546 34.393 90.6123 34.3041C90.57 34.2152 90.5954 34.1094 90.6758 34.0713C90.752 34.0332 90.8535 34.0756 90.8959 34.1687C90.9382 34.2533 90.9086 34.3591 90.8324 34.3972Z" fill="#EB996E"/>
<path d="M92.4232 34.0232C92.3385 34.002 92.2835 33.93 92.3004 33.8581C92.3174 33.7861 92.3978 33.7438 92.4824 33.765C92.5671 33.7861 92.6221 33.8581 92.6052 33.93C92.5882 34.002 92.5078 34.0443 92.4232 34.0232Z" fill="#EB996E"/>
<path d="M89.2415 139.28L89.1401 129.891C89.1401 129.891 82.8765 121.212 85.3473 111.797C85.3473 111.797 89.4316 108.925 100.383 110.61C100.383 110.61 114.131 97.217 132.559 100.621C150.987 104.026 152.702 120.084 152.875 124.455C153.048 128.827 153.01 137.316 146.67 145.616L146.244 153.852C146.244 153.852 144.732 156.956 140.36 156.745C135.985 156.534 136.234 155.888 136.234 155.888C136.234 155.888 130.752 160.318 130.507 161.48C130.262 162.641 129.408 167.021 129.408 167.021C129.408 167.021 127.508 169.615 123.394 169.914C121.451 170.058 119.85 169.539 118.697 168.951C117.591 168.385 116.746 167.41 116.37 166.223C115.85 164.576 114.512 161.797 111.2 160.272L108.362 159.528C108.362 159.528 107.217 160.567 103.234 160.998C99.2516 161.425 99.2389 160.01 99.2389 160.01C99.2389 160.01 93.0428 161.442 88.3841 155.368C84.7053 150.566 82.7118 141.924 89.2415 139.28Z" fill="#4DAAA7"/>
<path d="M127.455 139.82C127.451 139.816 127.518 139.714 127.658 139.533C127.797 139.347 128.004 139.077 128.262 138.722C128.781 138.016 129.512 136.973 130.31 135.626C131.104 134.278 131.97 132.619 132.734 130.693C133.119 129.73 133.478 128.703 133.795 127.626C134.103 126.558 134.377 125.383 134.099 124.243C133.816 123.098 132.975 122.216 132.071 121.578C131.155 120.936 130.162 120.48 129.208 120.091C127.29 119.323 125.444 118.955 123.886 118.811C122.327 118.659 121.056 118.731 120.186 118.811C119.751 118.854 119.413 118.896 119.185 118.93C118.957 118.959 118.834 118.972 118.834 118.964C118.834 118.955 118.953 118.93 119.181 118.883C119.409 118.833 119.743 118.778 120.182 118.723C121.056 118.617 122.332 118.52 123.907 118.651C125.478 118.778 127.345 119.128 129.288 119.897C130.255 120.286 131.26 120.742 132.202 121.396C133.127 122.043 134.018 122.968 134.318 124.184C134.614 125.4 134.323 126.604 134.01 127.681C133.685 128.767 133.322 129.797 132.929 130.764C132.147 132.695 131.269 134.359 130.45 135.702C129.626 137.045 128.874 138.076 128.333 138.768C128.063 139.115 127.844 139.376 127.696 139.554C127.544 139.735 127.459 139.828 127.455 139.82Z" fill="#263238"/>
<path d="M101.677 111.015C101.681 111.015 101.711 111.087 101.741 111.235C101.77 111.383 101.795 111.602 101.77 111.89C101.724 112.456 101.428 113.279 100.718 114.023C100.026 114.783 98.9783 115.404 97.9604 116.24C96.9298 117.072 95.8654 118.069 94.8729 119.235C92.8751 121.553 91.5573 124.028 90.8097 125.883C90.4338 126.812 90.1804 127.585 90.0157 128.121C89.9397 128.37 89.8805 128.577 89.8298 128.742C89.7834 128.881 89.7581 128.957 89.7496 128.953C89.7412 128.953 89.7538 128.873 89.7876 128.729C89.8256 128.56 89.8763 128.353 89.9354 128.096C90.0748 127.551 90.3071 126.765 90.6704 125.823C91.3884 123.944 92.6935 121.431 94.7124 119.087C95.7134 117.913 96.7946 116.907 97.8421 116.08C98.8853 115.243 99.9328 114.639 100.617 113.913C101.318 113.207 101.626 112.422 101.698 111.877C101.762 111.324 101.652 111.02 101.677 111.015Z" fill="#263238"/>
<g opacity="0.5">
<path opacity="0.5" d="M109.046 112.169L114.651 113.601C114.651 113.601 122.858 104.377 131.871 102.045L128.496 101.247C128.5 101.247 117.612 103.156 109.046 112.169Z" fill="black"/>
</g>
<path d="M130.046 101.602C122.723 103.236 115.918 107.122 110.787 112.596L109.046 112.165C109.046 112.165 116.995 103.439 128.496 101.243L130.046 101.602Z" fill="#4DAAA7"/>
<g opacity="0.7">
<g opacity="0.7">
<path opacity="0.7" d="M130.032 101.603C122.708 103.237 115.904 107.123 110.772 112.597L109.032 112.166C109.032 112.166 116.981 103.44 128.482 101.244L130.032 101.603Z" fill="black"/>
</g>
</g>
<path d="M86.5381 141.199C89.6467 136.756 97.4309 138.112 100.983 142.111C104.484 146.052 106.115 151.606 103.8 156.345C102.812 158.368 100.92 160.155 98.6684 160.104C100.979 157.616 101.798 154.026 101.076 150.707C100.354 147.391 98.2629 144.464 95.6189 142.335C94.28 141.254 92.7722 140.067 91.0574 139.898C89.3468 139.725 87.9699 139.674 86.5381 141.199Z" fill="#4DAAA7"/>
<g opacity="0.3">
<g opacity="0.3">
<path opacity="0.3" d="M86.5398 141.2C89.6484 136.756 97.4326 138.112 100.985 142.112C104.486 146.053 106.116 151.607 103.802 156.346C102.813 158.369 100.921 160.155 98.6701 160.105C100.98 157.617 101.8 154.027 101.078 150.707C100.355 147.391 98.2646 144.464 95.6206 142.336C94.2817 141.254 92.7739 140.068 91.0591 139.899C89.3485 139.725 87.9716 139.675 86.5398 141.2Z" fill="black"/>
</g>
</g>
<g opacity="0.3">
<g opacity="0.3">
<path opacity="0.3" d="M127.754 139.563C127.699 140.505 128.556 141.337 129.49 141.447C130.423 141.557 131.357 141.062 131.978 140.357C132.598 139.652 132.962 138.752 133.245 137.857C134.216 134.816 134.719 130.271 134.208 127.116C132.865 131.2 130.466 136.294 127.682 139.571" fill="black"/>
</g>
</g>
<g opacity="0.3">
<g opacity="0.3">
<path opacity="0.3" d="M130.705 125.518C130.101 123.732 128.251 122.693 126.469 122.072C124.657 121.438 122.752 121.066 120.839 120.965C120.235 120.931 119.614 120.931 119.044 121.142C118.478 121.354 117.967 121.814 117.865 122.41C117.781 122.891 118.043 123.423 118.465 123.634C121.519 127.161 123.817 131.338 125.168 135.807C125.43 136.673 126.528 136.909 127.128 136.225C128.564 134.586 129.392 132.377 130.135 130.282C130.68 128.745 131.229 127.064 130.705 125.518Z" fill="black"/>
</g>
</g>
<g opacity="0.3">
<g opacity="0.3">
<path opacity="0.3" d="M90.3348 126.341C88.4215 123.38 87.4163 119.84 87.4923 116.314C87.5092 115.566 87.5979 114.759 88.1216 114.223C88.7509 113.577 89.7731 113.564 90.6727 113.623C93.1562 113.779 95.6313 114.126 98.0599 114.662C98.2499 114.704 98.4653 114.768 98.5414 114.949C98.6554 115.22 98.6258 115.646 98.3766 115.798C94.5965 118.117 91.9145 122.383 90.4869 126.556" fill="black"/>
</g>
</g>
<path d="M85.615 112.136C85.6319 112.136 85.6193 112.364 85.5855 112.774C85.5475 113.183 85.5137 113.775 85.4883 114.505C85.4377 115.967 85.4841 117.994 85.86 120.195C86.0543 121.293 86.3119 122.323 86.5907 123.248C86.8779 124.169 87.1778 124.988 87.465 125.66C87.7522 126.332 87.9972 126.872 88.183 127.235C88.3646 127.603 88.4576 127.81 88.4449 127.818C88.4322 127.827 88.314 127.632 88.107 127.278C87.8958 126.923 87.6255 126.391 87.3214 125.723C87.0131 125.056 86.6963 124.237 86.3964 123.307C86.105 122.378 85.8389 121.339 85.6446 120.228C85.2645 118.011 85.2434 115.963 85.3363 114.493C85.3827 113.758 85.4419 113.166 85.5052 112.761C85.5644 112.356 85.6024 112.132 85.615 112.136Z" fill="#FAFAFA"/>
<path d="M128.183 100.939C128.183 100.948 128.111 100.973 127.963 101.02C127.794 101.07 127.583 101.129 127.329 101.205C127.051 101.281 126.717 101.374 126.328 101.501C125.94 101.624 125.492 101.75 125.011 101.923C124.039 102.244 122.899 102.679 121.653 103.212C120.411 103.756 119.072 104.403 117.704 105.163C116.344 105.932 115.089 106.738 113.978 107.511C112.876 108.297 111.909 109.044 111.128 109.703C110.726 110.024 110.388 110.337 110.08 110.607C109.772 110.873 109.514 111.11 109.303 111.308C109.104 111.486 108.944 111.634 108.813 111.752C108.699 111.853 108.636 111.904 108.631 111.895C108.627 111.887 108.678 111.828 108.783 111.718C108.906 111.591 109.058 111.435 109.244 111.241C109.442 111.034 109.691 110.785 109.996 110.51C110.295 110.236 110.629 109.91 111.026 109.581C111.799 108.901 112.758 108.141 113.86 107.342C114.971 106.557 116.225 105.737 117.594 104.964C118.967 104.2 120.318 103.554 121.568 103.017C122.823 102.494 123.976 102.071 124.96 101.767C125.446 101.602 125.898 101.484 126.29 101.374C126.683 101.26 127.025 101.176 127.304 101.112C127.566 101.053 127.777 101.007 127.95 100.969C128.102 100.948 128.183 100.935 128.183 100.939Z" fill="#FAFAFA"/>
<path d="M133.079 123.263C133.045 123.301 132.408 122.65 131.183 121.869C130.579 121.468 129.806 121.075 128.927 120.69C128.045 120.315 127.035 119.998 125.958 119.753C123.796 119.267 121.764 119.276 120.324 119.415C118.879 119.563 118.005 119.804 117.992 119.757C117.988 119.744 118.203 119.677 118.6 119.575C118.993 119.466 119.58 119.356 120.303 119.259C121.751 119.077 123.808 119.043 126 119.537C127.094 119.787 128.112 120.112 129.003 120.505C129.886 120.902 130.663 121.316 131.263 121.738C131.415 121.839 131.559 121.941 131.694 122.034C131.82 122.135 131.943 122.232 132.061 122.325C132.294 122.502 132.484 122.663 132.627 122.811C132.931 123.09 133.092 123.25 133.079 123.263Z" fill="#FAFAFA"/>
<path d="M95.3014 159.42C95.2972 159.428 95.2296 159.407 95.0987 159.365C94.972 159.318 94.7735 159.264 94.5369 159.162C94.0512 158.976 93.367 158.66 92.5645 158.182C90.968 157.24 88.9322 155.53 87.4919 153.055C86.0474 150.58 85.5533 147.965 85.5195 146.115C85.4983 145.186 85.5575 144.43 85.6335 143.919C85.6631 143.661 85.7095 143.463 85.7349 143.328C85.7602 143.193 85.7813 143.125 85.7856 143.125C85.8024 143.129 85.7644 143.412 85.718 143.927C85.6715 144.443 85.6335 145.19 85.6757 146.111C85.7518 147.944 86.2586 150.512 87.682 152.945C89.1053 155.378 91.0905 157.084 92.649 158.051C93.4304 158.541 94.1019 158.875 94.5707 159.086C95.0438 159.293 95.3099 159.399 95.3014 159.42Z" fill="#FAFAFA"/>
<g opacity="0.2">
<g opacity="0.2">
<path opacity="0.2" d="M96.4156 149.658C95.7694 149.413 94.9923 149.641 94.5234 150.147C94.0546 150.654 93.8772 151.398 93.987 152.078C94.0968 152.762 94.3038 153.349 94.7937 153.835C95.1316 154.168 95.7187 154.485 96.1876 154.515C96.838 154.557 97.4377 154.088 97.7545 153.514C98.1262 152.842 98.1938 152.006 97.9319 151.288C97.67 150.566 97.1379 149.928 96.4156 149.658Z" fill="black"/>
</g>
</g>
<path d="M95.7656 149.578C95.1573 150.309 94.9588 151.356 95.2587 152.26C95.5586 153.16 96.3442 153.886 97.2649 154.106C96.9524 154.41 96.3188 154.621 95.8416 154.482C94.5745 154.119 93.7593 152.788 93.8565 151.475C93.8945 150.947 94.093 150.419 94.4689 150.047C94.8448 149.68 95.5586 149.536 95.7656 149.578Z" fill="#4DAAA7"/>
<g opacity="0.4">
<g opacity="0.4">
<path opacity="0.4" d="M95.766 149.579C95.1578 150.31 94.9593 151.357 95.2592 152.261C95.5591 153.161 96.3447 153.887 97.2654 154.107C96.9529 154.411 96.3193 154.622 95.8421 154.483C94.575 154.12 93.7598 152.789 93.857 151.476C93.895 150.948 94.0935 150.42 94.4694 150.048C94.8453 149.681 95.5591 149.537 95.766 149.579Z" fill="black"/>
</g>
</g>
<g opacity="0.2">
<g opacity="0.2">
<path opacity="0.2" d="M90.1975 147.259C89.5724 147.022 88.8248 147.242 88.3729 147.732C87.9167 148.222 87.7478 148.935 87.8576 149.594C87.9632 150.253 88.1617 150.823 88.6347 151.292C88.9599 151.613 89.5259 151.922 89.9821 151.947C90.6114 151.985 91.1858 151.533 91.4941 150.984C91.8531 150.338 91.9165 149.531 91.6631 148.834C91.4054 148.133 90.8902 147.52 90.1975 147.259Z" fill="black"/>
</g>
</g>
<path d="M89.5623 147.182C88.9752 147.888 88.7852 148.897 89.0724 149.767C89.3596 150.637 90.1198 151.334 91.0068 151.55C90.7069 151.841 90.0945 152.044 89.6341 151.913C88.4135 151.562 87.6279 150.278 87.7208 149.011C87.7588 148.504 87.9489 147.993 88.3121 147.634C88.6754 147.28 89.3638 147.14 89.5623 147.182Z" fill="#4DAAA7"/>
<g opacity="0.4">
<g opacity="0.4">
<path opacity="0.4" d="M89.5618 147.182C88.9748 147.888 88.7847 148.897 89.0719 149.767C89.3591 150.637 90.1194 151.334 91.0063 151.549C90.7064 151.841 90.094 152.044 89.6336 151.913C88.413 151.562 87.6274 150.278 87.7203 149.011C87.7583 148.504 87.9484 147.993 88.3116 147.634C88.6749 147.279 89.3633 147.14 89.5618 147.182Z" fill="black"/>
</g>
</g>
<path d="M106.996 135.369C107.029 135.365 106.964 135.373 106.996 135.369V135.369Z" fill="white"/>
<path d="M106.223 135.61C106.24 135.597 106.266 135.593 106.283 135.58C106.291 135.576 106.3 135.568 106.312 135.563L106.223 135.61Z" fill="white"/>
<path d="M109.419 136.952C109.2 136.42 108.841 135.917 108.325 135.664C107.992 135.503 107.51 135.343 107.033 135.364L106.995 135.368C106.763 135.385 106.505 135.457 106.285 135.583C105.352 136.031 104.672 137.011 104.592 138.054C104.495 139.381 105.331 140.703 106.535 141.26C106.94 141.446 107.396 141.556 107.831 141.459C108.27 141.357 108.638 141.049 108.917 140.694C109.744 139.659 109.922 138.173 109.419 136.952Z" fill="white"/>
<path d="M93.8475 131.314C93.8718 131.306 93.8191 131.314 93.8475 131.314V131.314Z" fill="white"/>
<path d="M93.1843 131.523C93.2011 131.511 93.222 131.511 93.2346 131.498C93.243 131.494 93.2513 131.49 93.2597 131.486L93.1843 131.523Z" fill="white"/>
<path d="M95.9502 132.685C95.7602 132.225 95.4519 131.79 95.0041 131.57C94.7169 131.431 94.2988 131.291 93.8849 131.308L93.8511 131.312C93.6484 131.325 93.4245 131.388 93.2387 131.498C92.4319 131.887 91.8406 132.731 91.7731 133.639C91.6886 134.788 92.4108 135.933 93.4583 136.419C93.8089 136.579 94.2059 136.676 94.5818 136.588C94.9619 136.499 95.2787 136.233 95.5237 135.924C96.229 135.033 96.3811 133.741 95.9502 132.685Z" fill="white"/>
<path d="M96.8013 139.733C96.8013 139.725 96.8942 139.746 97.0632 139.788C97.2363 139.826 97.4813 139.906 97.7981 140.012C98.4274 140.24 99.3144 140.65 100.282 141.359C101.245 142.069 102.279 143.091 103.12 144.443C103.965 145.79 104.594 147.45 104.885 149.258C105.168 151.07 105.122 152.831 104.826 154.394C104.535 155.952 103.897 157.299 103.073 158.186C102.254 159.082 101.342 159.525 100.7 159.707C100.049 159.893 99.6734 159.846 99.6734 159.846C99.6692 159.817 100.049 159.829 100.674 159.622C101.295 159.424 102.174 158.968 102.955 158.081C103.741 157.202 104.349 155.889 104.623 154.351C104.902 152.818 104.944 151.07 104.666 149.291C104.379 147.509 103.766 145.874 102.942 144.548C102.127 143.214 101.122 142.196 100.18 141.482C99.2384 140.764 98.3725 140.337 97.7601 140.088C97.1519 139.847 96.7971 139.754 96.8013 139.733Z" fill="#263238"/>
<path d="M92.7526 134.736C92.7315 134.753 92.6217 134.66 92.5076 134.461C92.3936 134.263 92.2922 133.954 92.2922 133.604C92.2922 133.253 92.3894 132.941 92.5034 132.746C92.6132 132.548 92.7231 132.455 92.7442 132.472C92.7991 132.506 92.5034 132.966 92.5119 133.608C92.5076 134.242 92.8075 134.702 92.7526 134.736Z" fill="#FAFAFA"/>
<path d="M105.455 139.403C105.434 139.415 105.329 139.306 105.236 139.082C105.143 138.858 105.084 138.516 105.143 138.148C105.206 137.781 105.371 137.477 105.531 137.295C105.692 137.114 105.827 137.042 105.844 137.063C105.89 137.109 105.46 137.511 105.358 138.182C105.24 138.858 105.515 139.373 105.455 139.403Z" fill="#FAFAFA"/>
<path d="M113.477 161.726C113.456 161.76 112.945 161.405 112.05 160.957C111.159 160.505 109.875 159.994 108.417 159.521C106.964 159.048 105.634 158.643 104.688 158.305C104.215 158.136 103.835 157.992 103.573 157.882C103.315 157.773 103.172 157.705 103.18 157.692C103.193 157.663 103.78 157.865 104.739 158.161C105.697 158.461 107.028 158.837 108.489 159.314C109.951 159.791 111.243 160.328 112.121 160.822C112.345 160.94 112.54 161.059 112.709 161.168C112.882 161.274 113.025 161.367 113.135 161.456C113.363 161.616 113.486 161.713 113.477 161.726Z" fill="#263238"/>
<path d="M143.455 148.122C143.467 148.131 143.328 148.342 143.07 148.718C142.813 149.094 142.416 149.621 141.9 150.255C140.874 151.526 139.324 153.169 137.482 154.842C135.641 156.514 133.922 157.963 132.705 159.044C132.118 159.568 131.637 159.999 131.269 160.328C130.932 160.633 130.737 160.797 130.729 160.785C130.72 160.772 130.889 160.59 131.21 160.265C131.531 159.94 132.004 159.484 132.604 158.93C133.795 157.82 135.502 156.35 137.339 154.681C139.176 153.013 140.735 151.395 141.786 150.158C142.31 149.537 142.728 149.03 143.007 148.667C143.281 148.304 143.442 148.114 143.455 148.122Z" fill="#263238"/>
<g opacity="0.2">
<g opacity="0.2">
<path opacity="0.2" d="M136.274 155.942C138.551 156.128 141.127 155.431 142.741 153.817C144.358 152.204 144.916 149.505 143.945 147.44C142.618 149.332 141.123 151.342 139.299 152.888C138.15 153.86 137.389 155.046 136.274 155.942Z" fill="black"/>
</g>
</g>
<g opacity="0.5">
<g opacity="0.5">
<path opacity="0.5" d="M128.172 102.817C131.112 107.172 137.189 108.545 140.121 112.903C141.257 114.589 141.814 116.586 142.359 118.546C144.615 126.672 146.87 134.803 149.125 142.929C149.404 137.646 148.133 132.417 146.866 127.276C145.616 122.204 144.37 117.127 143.119 112.054C142.845 110.939 142.558 109.795 141.903 108.849C141.236 107.89 140.243 107.218 139.276 106.568C135.804 104.236 132.231 101.863 128.159 100.934" fill="black"/>
</g>
</g>
<g opacity="0.3">
<g opacity="0.3">
<path opacity="0.3" d="M107.457 115.993C107.643 116.584 106.836 117.391 105.569 118.392C104.931 118.89 104.188 119.46 103.368 120.073C102.558 120.698 101.675 121.374 100.767 122.109C99.8628 122.852 99.0223 123.574 98.2452 124.241C97.4765 124.917 96.7669 125.534 96.1503 126.053C94.9127 127.088 93.9582 127.718 93.4176 127.413C92.8981 127.126 92.9107 125.91 93.633 124.225C93.9878 123.384 94.5411 122.446 95.2675 121.488C96.0024 120.537 96.919 119.57 97.9918 118.692C99.073 117.817 100.205 117.12 101.282 116.597C102.367 116.081 103.398 115.731 104.293 115.553C106.089 115.19 107.284 115.427 107.457 115.993Z" fill="white"/>
</g>
</g>
<path d="M96.1545 149.327C96.1545 149.39 95.7152 149.428 95.1957 149.555C94.6762 149.678 94.2665 149.838 94.2369 149.779C94.2074 149.728 94.5959 149.471 95.145 149.34C95.6983 149.209 96.1587 149.268 96.1545 149.327Z" fill="#FAFAFA"/>
<path d="M89.7574 146.997C89.7489 147.06 89.3435 147.035 88.8662 147.149C88.3889 147.254 88.0341 147.453 87.9961 147.402C87.9581 147.36 88.2876 147.056 88.8155 146.933C89.3393 146.811 89.7701 146.942 89.7574 146.997Z" fill="#FAFAFA"/>
<path d="M118.192 166.634C118.137 166.664 117.575 165.718 116.794 164.607C116.017 163.496 115.316 162.647 115.362 162.605C115.404 162.567 116.186 163.361 116.975 164.48C117.765 165.604 118.243 166.609 118.192 166.634Z" fill="#FAFAFA"/>
<path d="M93.0283 122.311C93.0832 122.349 92.2512 123.565 91.5289 125.225C90.794 126.877 90.4604 128.313 90.3928 128.296C90.3674 128.292 90.4139 127.924 90.5617 127.341C90.7053 126.763 90.9588 125.973 91.3262 125.132C91.6937 124.296 92.1076 123.574 92.437 123.075C92.7665 122.577 93.0072 122.294 93.0283 122.311Z" fill="#FAFAFA"/>
<path d="M113.498 114.135C113.486 114.19 112.405 114 111.129 113.552C109.853 113.108 108.886 112.58 108.912 112.53C108.941 112.471 109.938 112.906 111.201 113.345C112.464 113.788 113.511 114.071 113.498 114.135Z" fill="#FAFAFA"/>
<path d="M146.439 107.285C146.481 107.31 145.81 108.231 144.644 108.974C143.482 109.726 142.367 109.958 142.363 109.908C142.342 109.844 143.402 109.532 144.53 108.797C145.666 108.075 146.392 107.238 146.439 107.285Z" fill="#EB996E"/>
<path d="M158.801 104.462C156.533 99.2249 133.831 80.6324 133.831 80.6324L121.038 97.2483C121.219 96.9991 141.915 109.602 141.915 109.602L148.022 137.424L149.07 142.378C149.07 142.378 146.325 144.773 146.439 147.303C146.515 148.988 142.62 152.629 142.62 152.629C141.7 151.864 141.108 151.649 140.644 151.738L136.526 155.594L137.506 156.489C138.6 157.486 140.036 158.018 141.514 157.972L148.555 157.756C149.56 157.727 150.51 157.309 151.211 156.586C153.378 154.356 157.944 149.381 158.037 146.977C158.087 145.634 158.1 144.355 158.096 143.324C158.092 143.328 161.069 109.7 158.801 104.462Z" fill="#FFBE9D"/>
<path d="M152.056 148.963C152.065 148.976 151.93 149.073 151.668 149.212C151.406 149.356 151.009 149.525 150.548 149.778C150.084 150.023 149.623 150.437 149.167 150.969C148.715 151.497 148.179 152.093 147.486 152.54C146.109 153.465 144.564 153.71 143.499 153.638C143.233 153.622 142.984 153.609 142.777 153.516C142.566 153.436 142.426 153.233 142.439 153.068C142.435 152.904 142.515 152.785 142.587 152.743C142.663 152.697 142.709 152.709 142.709 152.713C142.714 152.722 142.667 152.73 142.616 152.777C142.566 152.823 142.511 152.929 142.528 153.064C142.532 153.203 142.642 153.339 142.832 153.406C143.013 153.478 143.254 153.482 143.516 153.491C144.555 153.524 146.046 153.263 147.381 152.367C148.056 151.932 148.568 151.37 149.032 150.842C149.497 150.314 149.999 149.884 150.489 149.651C150.971 149.411 151.372 149.263 151.642 149.145C151.904 149.022 152.052 148.946 152.056 148.963Z" fill="#EB996E"/>
<path d="M148.849 152.626C148.879 152.681 148.296 153.023 147.671 153.555C147.042 154.083 146.607 154.598 146.556 154.56C146.509 154.531 146.881 153.94 147.532 153.391C148.186 152.846 148.828 152.58 148.849 152.626Z" fill="#EB996E"/>
<path d="M151.702 141.101C151.706 141.164 151.081 141.202 150.401 141.527C149.717 141.844 149.29 142.3 149.244 142.258C149.197 142.228 149.581 141.675 150.312 141.337C151.039 140.987 151.706 141.046 151.702 141.101Z" fill="#EB996E"/>
<path d="M147.292 154.799C147.275 154.833 146.836 154.618 146.08 154.436C145.328 154.254 144.243 154.145 143.081 154.377C142.794 154.44 142.515 154.508 142.253 154.601C142.122 154.639 141.991 154.698 141.839 154.723C141.692 154.757 141.502 154.715 141.388 154.626C140.982 154.33 140.606 154.056 140.268 153.811C139.639 153.342 139.259 153.042 139.276 153.017C139.293 152.992 139.707 153.249 140.361 153.684C140.703 153.916 141.088 154.174 141.497 154.453C141.679 154.592 141.907 154.491 142.186 154.39C142.456 154.292 142.743 154.221 143.043 154.153C144.243 153.912 145.366 154.052 146.122 154.28C146.507 154.385 146.798 154.52 147.001 154.613C147.195 154.719 147.296 154.782 147.292 154.799Z" fill="#EB996E"/>
<path d="M99.5291 90.2592C96.8217 89.4862 95.6222 89.1484 95.6222 89.1484L95.6307 87.9193C95.6307 87.9193 95.6307 87.9193 96.7077 87.9066C97.7847 87.8939 99.3433 86.5635 99.3433 86.5635L101.654 83.0241L101.949 80.7602C101.7 77.9599 98.3296 79.0581 98.3296 79.0581C98.1691 78.0824 93.8567 77.1025 90.613 76.4985C88.4125 76.0888 86.1444 76.6844 84.4296 78.1289L81.3167 80.756L71.9867 88.9245L47.9077 109.261L32.0817 104.59C32.0817 104.59 27.0513 119.989 26.2277 125.518C24.6523 136.115 39.2154 143.177 45.6396 137.725C50.6319 133.484 79.7498 102.132 84.5732 96.9283C84.5858 96.9283 84.6027 96.9283 84.6154 96.9283C87.5846 96.5482 92.5896 93.5536 92.5896 93.5536L95.1618 93.8577C95.1618 93.8577 101.996 95.1628 102.807 93.8239C103.436 92.7638 102.236 91.0321 99.5291 90.2592Z" fill="#FFBE9D"/>
<path d="M85.5239 87.1763C85.5365 87.172 85.5914 87.2776 85.6759 87.4719C85.7646 87.6662 85.8618 87.9619 85.9547 88.3378C86.1405 89.0811 86.2461 90.1582 86.0645 91.3239C85.8787 92.4896 85.4436 93.4822 85.0339 94.1284C84.8312 94.4536 84.6454 94.707 84.5017 94.8633C84.3624 95.0238 84.2779 95.1083 84.2652 95.0998C84.2357 95.0745 84.5313 94.7113 84.8988 94.0481C85.2662 93.3935 85.6632 92.4178 85.8449 91.2859C86.0223 90.1539 85.9462 89.1023 85.7984 88.3673C85.659 87.6324 85.4901 87.1889 85.5239 87.1763Z" fill="#EB996E"/>
<path d="M87.252 78.5552C87.252 78.5468 87.3406 78.5299 87.518 78.5045C87.6912 78.4792 87.9489 78.4454 88.2825 78.4158C88.9456 78.3609 89.9213 78.2765 91.1166 78.4496C91.7121 78.5425 92.3583 78.7073 93.0046 79.0114C93.6466 79.3155 94.2928 79.759 94.8038 80.3883C95.3107 81.0134 95.6823 81.837 95.6697 82.7324C95.6655 83.1759 95.5472 83.632 95.336 84.0375C95.1248 84.4472 94.8334 84.8104 94.5082 85.1357C93.862 85.7734 93.1524 86.2972 92.4386 86.7618C92.0754 86.9814 91.7332 87.2179 91.3278 87.37C91.1293 87.4418 90.9181 87.4925 90.6942 87.4756C90.4746 87.4671 90.2507 87.3573 90.1114 87.1799C89.9678 87.0025 89.9255 86.7787 89.9297 86.5759C89.934 86.3732 89.9762 86.1789 90.0353 85.9973C90.162 85.6383 90.331 85.3131 90.5295 85.0216C90.9307 84.4345 91.4503 83.9995 91.9824 83.7165L92.0078 83.8643C90.8125 83.6363 89.8326 83.4504 89.1273 83.3153C88.8063 83.2477 88.5486 83.197 88.3459 83.1548C88.1685 83.1168 88.0756 83.0914 88.0756 83.083C88.0756 83.0745 88.1727 83.083 88.3543 83.1083C88.5571 83.1379 88.8189 83.1801 89.1441 83.2266C89.8537 83.3448 90.8378 83.5053 92.0373 83.7038L92.2612 83.7419L92.0627 83.8517C91.5558 84.1347 91.0659 84.557 90.6858 85.1188C90.4957 85.3975 90.3394 85.7143 90.2212 86.0522C90.1156 86.3774 90.0649 86.7829 90.2719 87.049C90.483 87.3235 90.9012 87.3066 91.2602 87.1672C91.6234 87.0321 91.9698 86.7955 92.3246 86.5759C93.0257 86.1198 93.7268 85.596 94.3519 84.9752C94.9854 84.3501 95.4543 83.5602 95.4543 82.7197C95.4712 81.8877 95.1248 81.1063 94.6476 80.5065C94.1661 79.9026 93.5494 79.4675 92.9285 79.1676C92.3077 78.8635 91.6783 78.6946 91.0955 78.5932C89.9255 78.4032 88.9541 78.4623 88.291 78.4919C87.9784 78.513 87.7208 78.5256 87.5223 78.5383C87.3449 78.5594 87.252 78.5637 87.252 78.5552Z" fill="#EB996E"/>
<path d="M98.3688 79.1956C98.3815 79.1956 98.4153 79.3561 98.4448 79.6517C98.4744 79.9474 98.504 80.374 98.4955 80.9061C98.4744 81.9578 98.297 83.4826 97.4438 84.9017C96.6033 86.3166 95.2771 87.2289 94.1832 87.3683C93.6257 87.4359 93.1864 87.1909 92.9921 86.9586C92.8907 86.8446 92.8358 86.7348 92.8147 86.6587C92.7894 86.5827 92.7894 86.5405 92.7936 86.5405C92.8147 86.532 92.8485 86.701 93.0555 86.9037C93.254 87.1022 93.6594 87.2965 94.1663 87.2205C95.1715 87.0515 96.4513 86.1561 97.258 84.7919C98.0816 83.4234 98.2843 81.9409 98.3435 80.9019C98.3899 79.8544 98.3308 79.1998 98.3688 79.1956Z" fill="#EB996E"/>
<path d="M92.4104 91.2561C92.3851 91.2307 92.6047 91.0364 92.8666 90.6605C93.1285 90.2888 93.4114 89.706 93.479 89.0175C93.5466 88.3291 93.3777 87.6998 93.196 87.2858C93.0144 86.8635 92.837 86.6354 92.8624 86.6143C92.8793 86.5974 93.1073 86.7959 93.3354 87.2183C93.5635 87.6364 93.7705 88.2995 93.6987 89.0386C93.6269 89.7778 93.2974 90.3902 92.9933 90.7534C92.685 91.1251 92.4273 91.2772 92.4104 91.2561Z" fill="#EB996E"/>
<path d="M88.2862 83.2535C88.3116 83.2366 88.4805 83.5872 88.4214 84.1785C88.396 84.4657 88.32 84.8205 88.1257 85.1626C87.9483 85.5005 87.7118 85.8595 87.4077 86.1847C86.791 86.8478 86.0308 87.1773 85.5113 87.3969C84.9791 87.6123 84.6412 87.7179 84.6285 87.6883C84.6159 87.6588 84.9326 87.5025 85.4437 87.2533C85.9463 86.9957 86.6643 86.6578 87.243 86.0285C87.5344 85.7201 87.7625 85.3822 87.9441 85.057C88.1342 84.7445 88.2144 84.4235 88.2609 84.1489C88.358 83.6041 88.2524 83.262 88.2862 83.2535Z" fill="#EB996E"/>
<path d="M106.237 84.4995L94.3555 90.9786C94.3555 90.9786 100.712 92.5667 106.465 98.653C111.681 104.173 113.696 110.154 113.696 110.154L125.534 102.277C125.53 102.281 119.174 87.8615 106.237 84.4995Z" fill="#20A23C"/>
<path d="M96.4642 90.7341C96.9879 90.4342 100.227 88.5842 106.056 85.2518L106.081 85.2349L106.111 85.2433C107.674 85.653 109.317 86.3161 110.964 87.2453C112.603 88.1787 114.242 89.374 115.804 90.8016C117.371 92.225 118.871 93.8722 120.273 95.6968C121.671 97.5215 122.997 99.5066 124.129 101.678L124.176 101.762L124.095 101.817C123.897 101.948 123.686 102.091 123.474 102.235C120.273 104.376 117.181 106.438 114.343 108.338L114.237 108.41L114.187 108.292C112.772 104.833 110.922 101.851 108.924 99.4686C106.926 97.0822 104.802 95.2956 102.926 94.0074C101.043 92.7149 99.4039 91.9124 98.2635 91.4225C97.6891 91.1775 97.2414 91.0128 96.933 90.903C96.7852 90.8523 96.6712 90.8143 96.5825 90.7847C96.4938 90.7467 96.46 90.7341 96.4642 90.7341C96.498 90.7425 96.5318 90.7467 96.5867 90.7594C96.6754 90.7847 96.7937 90.8185 96.9415 90.8608C97.2498 90.9579 97.706 91.1142 98.2846 91.3465C99.4377 91.8153 101.093 92.6051 102.994 93.8891C104.89 95.1689 107.036 96.9513 109.055 99.3418C111.074 101.728 112.945 104.727 114.377 108.203L114.22 108.157C117.059 106.256 120.146 104.191 123.348 102.045C123.559 101.901 123.774 101.762 123.969 101.627L123.931 101.766C122.811 99.6206 121.489 97.6355 120.104 95.8193C118.71 94.0032 117.223 92.3602 115.669 90.9452C114.119 89.5219 112.497 88.335 110.875 87.3974C109.245 86.4724 107.619 85.8051 106.073 85.3911L106.132 85.3827C100.257 88.6391 96.9879 90.4426 96.4642 90.7341Z" fill="white"/>
<path d="M115.888 94.6365C115.579 96.4653 113.26 97.5719 110.714 97.1073C108.167 96.6427 106.351 94.7843 106.659 92.9555C106.967 91.1266 109.286 90.02 111.833 90.4846C114.384 90.9492 116.2 92.8076 115.888 94.6365Z" fill="#FAFAFA"/>
<path d="M110.355 95.2277L109.945 95.6839L109.472 95.2235L109.869 94.7842C109.501 94.3703 109.231 93.8888 109.151 93.5002L109.949 93.1539C110.042 93.5594 110.287 94.0113 110.604 94.3238C110.929 94.6406 111.14 94.666 111.263 94.5266C111.672 94.0704 109.801 92.8751 110.764 91.815C111.17 91.3631 111.829 91.287 112.542 91.8277L112.948 91.3757L113.421 91.8361L113.02 92.2796C113.29 92.5879 113.505 92.9512 113.603 93.2975L112.817 93.6649C112.686 93.2595 112.492 92.9343 112.251 92.702C111.922 92.3852 111.702 92.3852 111.571 92.5246C111.174 92.9638 113.037 94.1591 112.082 95.215C111.698 95.6458 111.056 95.7303 110.355 95.2277Z" fill="#20A23C"/>
<path d="M99.1711 89.2079C99.1711 89.2079 101.186 90.23 99.2513 91.7252L96.2905 90.5763L99.1711 89.2079Z" fill="#FAFAFA"/>
<path d="M104.583 86.169C104.583 86.169 106.525 88.2217 108.38 86.0845L106.09 85.3201L104.583 86.169Z" fill="#FAFAFA"/>
<path d="M113.042 105.55C113.042 105.55 115.656 103.43 117.185 106.289L114.262 108.245L113.042 105.55Z" fill="#FAFAFA"/>
<path d="M122.688 99.3958C122.688 99.3958 120.8 100.574 122.08 103.015L124.014 101.723L122.688 99.3958Z" fill="#FAFAFA"/>
<path d="M115.696 106.247C115.696 106.699 115.341 107.067 114.906 107.067C114.471 107.067 114.116 106.699 114.116 106.247C114.116 105.795 114.471 105.428 114.906 105.428C115.346 105.428 115.696 105.795 115.696 106.247Z" fill="#20A23C"/>
<path d="M123.625 101.205C123.625 101.656 123.27 102.024 122.835 102.024C122.4 102.024 122.045 101.656 122.045 101.205C122.045 100.753 122.4 100.385 122.835 100.385C123.27 100.385 123.625 100.753 123.625 101.205Z" fill="#20A23C"/>
<path d="M107.297 86.0883C107.297 86.3797 106.891 86.6162 106.393 86.6162C105.894 86.6162 105.489 86.3797 105.489 86.0883C105.489 85.7968 105.894 85.5603 106.393 85.5603C106.891 85.5603 107.297 85.7968 107.297 86.0883Z" fill="#20A23C"/>
<path d="M99.5793 90.4685C99.5793 90.857 99.1865 91.1696 98.7008 91.1696C98.2151 91.1696 97.8223 90.8528 97.8223 90.4685C97.8223 90.0799 98.2151 89.7673 98.7008 89.7673C99.1865 89.7673 99.5793 90.0841 99.5793 90.4685Z" fill="#20A23C"/>
<path d="M106.873 90.029C106.873 90.4767 106.315 90.84 105.627 90.84C104.938 90.84 104.381 90.4767 104.381 90.0248C104.381 89.5771 104.938 89.2139 105.627 89.2139C106.315 89.2181 106.873 89.5813 106.873 90.029Z" fill="#FAFAFA"/>
<path d="M116.871 100.884C116.31 101.137 115.617 100.782 115.321 100.09C115.03 99.397 115.245 98.6283 115.807 98.3706C116.369 98.1172 117.061 98.472 117.357 99.1647C117.648 99.8574 117.433 100.626 116.871 100.884Z" fill="#FAFAFA"/>
<path d="M99.3486 86.5614L104.223 91.6932C104.223 91.6932 106.174 93.9233 107.488 92.8716C108.801 91.8157 106.955 89.8432 106.567 89.273C106.178 88.6986 101.397 82.8995 101.397 82.8995L99.3486 86.5614Z" fill="#FFBE9D"/>
<path d="M101.863 81.9322C101.888 81.9407 101.834 82.2828 101.677 82.8234C101.517 83.364 101.246 84.099 100.811 84.8466C100.376 85.5941 99.8569 86.1939 99.4261 86.5614C98.9953 86.933 98.6827 87.0935 98.6701 87.0766C98.649 87.0471 98.9277 86.8401 99.3205 86.4515C99.7133 86.063 100.199 85.4717 100.621 84.741C101.466 83.2669 101.791 81.9069 101.863 81.9322Z" fill="#EB996E"/>
<path d="M56.4872 102.025C56.4914 102.029 56.4154 102.109 56.2591 102.249C56.086 102.401 55.8621 102.603 55.5791 102.857C54.9625 103.393 54.1009 104.141 53.0407 105.057C50.8909 106.907 47.9048 109.442 44.5765 112.208C41.2483 114.975 38.2073 117.445 35.973 119.194C34.8579 120.073 33.9414 120.761 33.2994 121.23C32.9911 121.449 32.7419 121.627 32.556 121.762C32.3829 121.88 32.2942 121.939 32.2899 121.935C32.2857 121.931 32.3702 121.859 32.5307 121.728C32.7123 121.585 32.9488 121.399 33.2487 121.166C33.8738 120.676 34.7735 119.967 35.8758 119.076C38.0848 117.298 41.1089 114.81 44.4372 112.043C47.7485 109.277 50.7473 106.772 52.9394 104.943C54.0164 104.048 54.8949 103.317 55.52 102.798C55.8157 102.557 56.048 102.367 56.2296 102.219C56.3943 102.084 56.483 102.021 56.4872 102.025Z" fill="#EB996E"/>
</svg>
