<svg width="15" height="15" viewBox="0 0 15 15" fill="none" xmlns="http://www.w3.org/2000/svg">
<path d="M11.301 3.59179C11.4891 3.77991 11.6633 3.9789 11.8265 4.18878C11.7861 4.13593 11.7456 4.08462 11.7052 4.03176C12.0224 4.44687 12.2867 4.89928 12.4903 5.37966C12.4639 5.31747 12.4375 5.25528 12.4126 5.19465C12.6209 5.69215 12.7624 6.21451 12.8339 6.74777C12.8246 6.67937 12.8152 6.6094 12.8059 6.541C12.8759 7.07892 12.8759 7.62303 12.8059 8.16095C12.8152 8.09255 12.8246 8.02259 12.8339 7.95418C12.7624 8.48744 12.6209 9.00981 12.4126 9.5073C12.439 9.44511 12.4655 9.38293 12.4903 9.32229C12.2867 9.80267 12.0239 10.2566 11.7052 10.6702C11.7456 10.6173 11.7861 10.566 11.8265 10.5132C11.5016 10.9329 11.1238 11.3107 10.704 11.6356C10.7569 11.5952 10.8082 11.5548 10.861 11.5144C10.4459 11.8315 9.99353 12.0958 9.51315 12.2995C9.57534 12.273 9.63753 12.2466 9.69816 12.2217C9.20067 12.4301 8.6783 12.5715 8.14504 12.643C8.21345 12.6337 8.28341 12.6244 8.35181 12.6151C7.8139 12.685 7.26978 12.685 6.73186 12.6151C6.80026 12.6244 6.87023 12.6337 6.93863 12.643C6.40538 12.5715 5.88301 12.43 5.38551 12.2217C5.4477 12.2482 5.50989 12.2746 5.57052 12.2995C5.09014 12.0958 4.63617 11.8331 4.22263 11.5144C4.27548 11.5548 4.32679 11.5952 4.37965 11.6356C3.95987 11.3107 3.58209 10.9329 3.25719 10.5132C3.29761 10.566 3.33803 10.6173 3.37845 10.6702C3.06131 10.2551 2.79701 9.80267 2.59335 9.32229C2.61978 9.38448 2.64621 9.44667 2.67108 9.5073C2.46276 9.00981 2.32127 8.48744 2.24978 7.95418C2.25911 8.02259 2.26843 8.09255 2.27776 8.16095C2.2078 7.62303 2.2078 7.07892 2.27776 6.541C2.26843 6.6094 2.25911 6.67937 2.24978 6.74777C2.32129 6.21451 2.46277 5.69215 2.67108 5.19465C2.64465 5.25684 2.61822 5.31903 2.59335 5.37966C2.79701 4.89928 3.05974 4.44531 3.37845 4.03176C3.33803 4.08462 3.29761 4.13593 3.25719 4.18878C3.58212 3.76901 3.9599 3.39123 4.37965 3.06633C4.32679 3.10675 4.27548 3.14717 4.22263 3.18759C4.63773 2.87045 5.09014 2.60615 5.57052 2.40249C5.50833 2.42892 5.44615 2.45535 5.38551 2.48022C5.88301 2.2719 6.40538 2.13041 6.93863 2.05892C6.87023 2.06824 6.80026 2.07757 6.73186 2.0869C7.26978 2.01694 7.8139 2.01694 8.35181 2.0869C8.28341 2.07757 8.21345 2.06825 8.14504 2.05892C8.6783 2.13043 9.20067 2.27191 9.69816 2.48022C9.63597 2.45379 9.57379 2.42736 9.51315 2.40249C9.99353 2.60615 10.4475 2.86888 10.861 3.18759C10.8082 3.14717 10.7569 3.10675 10.704 3.06633C10.9139 3.22801 11.1129 3.40368 11.301 3.59179C11.4425 3.73327 11.6508 3.81877 11.8514 3.81877C12.0426 3.81877 12.2696 3.73482 12.4017 3.59179C12.537 3.4441 12.638 3.24977 12.6287 3.04145C12.6194 2.83623 12.5494 2.64036 12.4017 2.49111C11.416 1.51167 10.1226 0.816748 8.74811 0.589749C8.07806 0.479368 7.40644 0.445166 6.7317 0.533779C6.35702 0.581973 5.98703 0.645715 5.62323 0.751431C5.26722 0.855595 4.92208 0.993957 4.58626 1.14943C3.94884 1.44482 3.36117 1.8568 2.84659 2.33408C2.33355 2.8098 1.88737 3.37726 1.54689 3.98826C0.881495 5.17915 0.56435 6.58768 0.698048 7.94945C0.768007 8.66615 0.931247 9.35019 1.21109 10.0156C1.49714 10.6919 1.87804 11.3013 2.35533 11.8594C3.26326 12.9166 4.52875 13.6893 5.88298 14.0204C7.2029 14.3422 8.6363 14.2832 9.91125 13.7997C10.2595 13.6675 10.6015 13.5167 10.9249 13.3333C11.2576 13.1452 11.5654 12.9228 11.8655 12.6865C12.4236 12.245 12.9009 11.7024 13.2942 11.1101C14.0513 9.97209 14.4431 8.57599 14.412 7.21089C14.3809 5.84122 13.9425 4.46069 13.1278 3.35234C12.904 3.04918 12.6661 2.75691 12.4003 2.48948C12.2603 2.34801 12.0489 2.2625 11.8499 2.2625C11.6587 2.2625 11.4317 2.34645 11.2996 2.48948C11.1643 2.63718 11.0633 2.8315 11.0726 3.03983C11.0835 3.24815 11.1534 3.44248 11.3011 3.59173L11.301 3.59179Z" fill="white"/>
<path d="M5.16582 5.55611C5.16582 5.57011 5.16426 5.5841 5.16271 5.59809C5.17204 5.52969 5.18136 5.45973 5.19069 5.39132C5.18603 5.41931 5.17981 5.44418 5.17048 5.47061C5.19691 5.40842 5.22334 5.34624 5.24822 5.28561C5.23733 5.31048 5.2249 5.33225 5.20935 5.35556C5.24977 5.30271 5.29019 5.2514 5.33061 5.19854C5.3104 5.22497 5.28708 5.24829 5.26065 5.2685C5.31351 5.22808 5.36482 5.18766 5.41767 5.14724C5.39591 5.16279 5.37259 5.17522 5.34771 5.18611C5.4099 5.15968 5.47209 5.13325 5.53272 5.10837C5.50629 5.1177 5.48142 5.12392 5.45343 5.12858C5.52183 5.11926 5.5918 5.10993 5.6602 5.1006C5.63222 5.10371 5.60423 5.10371 5.57625 5.1006C5.64465 5.10993 5.71461 5.11926 5.78302 5.12858C5.75503 5.12392 5.73016 5.1177 5.70373 5.10837C5.76592 5.1348 5.8281 5.16123 5.88873 5.18611C5.86386 5.17522 5.84209 5.16279 5.81878 5.14724C5.87163 5.18766 5.92294 5.22808 5.9758 5.2685C5.94937 5.24829 5.92605 5.22497 5.90584 5.19854C5.94626 5.2514 5.98668 5.30271 6.0271 5.35556C6.01155 5.3338 5.99912 5.31048 5.98823 5.28561C6.01466 5.34779 6.04109 5.40998 6.06597 5.47061C6.05664 5.44418 6.05042 5.41931 6.04576 5.39132C6.05508 5.45973 6.06441 5.52969 6.07374 5.59809C6.07063 5.57011 6.07063 5.54212 6.07374 5.51414C6.06441 5.58254 6.05508 5.65251 6.04576 5.72091C6.05042 5.69293 6.05664 5.66805 6.06597 5.64162C6.03954 5.70381 6.01311 5.76599 5.98823 5.82663C5.99912 5.80175 6.01155 5.77999 6.0271 5.75667C5.98668 5.80953 5.94626 5.86083 5.90584 5.91369C5.92605 5.88726 5.94937 5.86394 5.9758 5.84373C5.92294 5.88415 5.87163 5.92457 5.81878 5.96499C5.84054 5.94944 5.86386 5.93701 5.88873 5.92612C5.82655 5.95255 5.76436 5.97898 5.70373 6.00386C5.73016 5.99453 5.75503 5.98831 5.78302 5.98365C5.71461 5.99298 5.64465 6.0023 5.57625 6.01163C5.60423 6.00852 5.63222 6.00852 5.6602 6.01163C5.5918 6.0023 5.52183 5.99298 5.45343 5.98365C5.48141 5.98831 5.50629 5.99453 5.53272 6.00386C5.47053 5.97743 5.40835 5.951 5.34771 5.92612C5.37259 5.93701 5.39435 5.94944 5.41767 5.96499C5.36481 5.92457 5.31351 5.88415 5.26065 5.84373C5.28708 5.86394 5.3104 5.88726 5.33061 5.91369C5.29019 5.86083 5.24977 5.80952 5.20935 5.75667C5.2249 5.77843 5.23733 5.80175 5.24822 5.82663C5.22179 5.76444 5.19536 5.70225 5.17048 5.64162C5.17981 5.66805 5.18603 5.69292 5.19069 5.72091C5.18136 5.65251 5.17204 5.58254 5.16271 5.51414C5.16426 5.52813 5.16582 5.54212 5.16582 5.55612C5.17204 5.75978 5.24821 5.96034 5.3928 6.10646C5.52806 6.24171 5.74881 6.34277 5.94314 6.33344C6.14369 6.32411 6.35202 6.25882 6.49348 6.10646C6.63029 5.95721 6.72824 5.76444 6.72046 5.55612C6.71114 5.26538 6.60697 4.97468 6.39087 4.77102C6.18099 4.57357 5.91049 4.45541 5.61975 4.45541C5.0212 4.45541 4.51904 4.95756 4.51904 5.55612C4.51904 6.15467 5.0212 6.65683 5.61975 6.65683C5.91049 6.65683 6.18098 6.53867 6.39087 6.34122C6.60697 6.13756 6.71114 5.84682 6.72046 5.55612C6.72668 5.36023 6.62874 5.14257 6.49348 5.00578C6.35823 4.87052 6.13748 4.76947 5.94314 4.77879C5.51095 4.799 5.17979 5.12081 5.1658 5.55613L5.16582 5.55611Z" fill="white"/>
<path d="M9.0164 5.57631C9.0164 5.5903 9.01485 5.60429 9.01329 5.61829C9.02262 5.54988 9.03195 5.47992 9.04128 5.41152C9.03662 5.4395 9.0304 5.46438 9.02107 5.49081C9.0475 5.42862 9.07393 5.36643 9.0988 5.3058C9.08792 5.33068 9.07548 5.35244 9.05994 5.37576C9.10036 5.3229 9.14078 5.2716 9.1812 5.21874C9.16099 5.24517 9.13767 5.26849 9.11124 5.2887C9.1641 5.24828 9.2154 5.20785 9.26826 5.16744C9.24649 5.18298 9.22318 5.19542 9.1983 5.2063C9.26049 5.17987 9.32267 5.15344 9.38331 5.12857C9.35688 5.1379 9.332 5.14411 9.30402 5.14878C9.37242 5.13945 9.44238 5.13012 9.51079 5.12079C9.4828 5.1239 9.45482 5.1239 9.42683 5.12079C9.49524 5.13012 9.5652 5.13945 9.6336 5.14878C9.60562 5.14411 9.58075 5.1379 9.55432 5.12857C9.6165 5.155 9.67869 5.18143 9.73932 5.2063C9.71445 5.19542 9.69268 5.18298 9.66936 5.16744C9.72222 5.20786 9.77352 5.24828 9.82638 5.2887C9.79995 5.26849 9.77663 5.24517 9.75642 5.21874C9.79684 5.2716 9.83727 5.3229 9.87769 5.37576C9.86214 5.35399 9.8497 5.33068 9.83882 5.3058C9.86525 5.36799 9.89168 5.43017 9.91655 5.49081C9.90722 5.46438 9.90101 5.4395 9.89634 5.41152C9.90567 5.47992 9.915 5.54988 9.92433 5.61829C9.92122 5.5903 9.92122 5.56232 9.92433 5.53433C9.915 5.60274 9.90567 5.6727 9.89634 5.7411C9.90101 5.71312 9.90722 5.68825 9.91655 5.66182C9.89012 5.724 9.86369 5.78619 9.83882 5.84682C9.8497 5.82195 9.86214 5.80018 9.87769 5.77686C9.83726 5.82972 9.79684 5.88103 9.75642 5.93388C9.77663 5.90745 9.79995 5.88413 9.82638 5.86392C9.77352 5.90434 9.72222 5.94477 9.66936 5.98519C9.69113 5.96964 9.71445 5.9572 9.73932 5.94632C9.67713 5.97275 9.61495 5.99918 9.55432 6.02405C9.58074 6.01473 9.60562 6.00851 9.6336 6.00384C9.5652 6.01317 9.49524 6.0225 9.42683 6.03183C9.45482 6.02872 9.4828 6.02872 9.51079 6.03183C9.44238 6.0225 9.37242 6.01317 9.30402 6.00384C9.332 6.00851 9.35688 6.01472 9.38331 6.02405C9.32112 5.99762 9.25893 5.97119 9.1983 5.94632C9.22318 5.9572 9.24494 5.96964 9.26826 5.98519C9.2154 5.94476 9.1641 5.90434 9.11124 5.86392C9.13767 5.88413 9.16099 5.90745 9.1812 5.93388C9.14078 5.88102 9.10035 5.82972 9.05994 5.77686C9.07548 5.79863 9.08792 5.82195 9.0988 5.84682C9.07237 5.78463 9.04594 5.72245 9.02107 5.66182C9.0304 5.68824 9.03662 5.71312 9.04128 5.7411C9.03195 5.6727 9.02262 5.60274 9.01329 5.53433C9.01485 5.54833 9.0164 5.56232 9.0164 5.57631C9.02262 5.77997 9.0988 5.98053 9.24339 6.12665C9.37864 6.26191 9.59939 6.36296 9.79373 6.35363C9.99428 6.34431 10.2026 6.27901 10.3441 6.12665C10.4809 5.97741 10.5788 5.78463 10.5711 5.57631C10.5617 5.28558 10.4576 4.99487 10.2415 4.79121C10.0316 4.59377 9.76108 4.4756 9.47034 4.4756C8.87178 4.4756 8.36963 4.97776 8.36963 5.57631C8.36963 6.17487 8.87178 6.67702 9.47034 6.67702C9.76108 6.67702 10.0316 6.55887 10.2415 6.36141C10.4576 6.15775 10.5617 5.86702 10.5711 5.57631C10.5773 5.38042 10.4793 5.16277 10.3441 5.02597C10.2088 4.89072 9.98806 4.78966 9.79373 4.79899C9.36153 4.8192 9.03037 5.14101 9.01639 5.57633L9.0164 5.57631Z" fill="white"/>
<path d="M9.17767 8.5821C9.10461 8.72357 9.0191 8.85572 8.92116 8.98319C8.96158 8.93033 9.002 8.87903 9.04242 8.82617C8.90405 9.00185 8.74702 9.15887 8.57136 9.29413C8.62422 9.25371 8.67553 9.21328 8.72838 9.17287C8.55271 9.30657 8.36303 9.41695 8.15937 9.504C8.22155 9.47757 8.28374 9.45114 8.34437 9.42626C8.13294 9.51488 7.91061 9.57551 7.68364 9.6066C7.75205 9.59728 7.82201 9.58795 7.89041 9.57862C7.65721 9.60972 7.42089 9.60972 7.1877 9.57862C7.2561 9.58795 7.32606 9.59728 7.39447 9.6066C7.16748 9.57551 6.94516 9.51488 6.73374 9.42626C6.79592 9.45269 6.85811 9.47912 6.91874 9.504C6.71508 9.41694 6.52541 9.30655 6.34972 9.17287C6.40258 9.21329 6.45389 9.25371 6.50674 9.29413C6.33107 9.15732 6.17249 9.00029 6.03569 8.82617C6.07611 8.87903 6.11653 8.93034 6.15695 8.98319C6.06056 8.85726 5.97506 8.72356 5.90043 8.5821C5.81182 8.4142 5.61592 8.27428 5.43558 8.22453C5.24902 8.17323 5.00182 8.19655 4.83702 8.30226C4.67067 8.40953 4.52454 8.56811 4.47945 8.76712C4.43126 8.977 4.45769 9.17444 4.55719 9.36568C4.9987 10.2099 5.83668 10.8613 6.76947 11.0665C7.64318 11.2593 8.59154 11.1224 9.34867 10.6281C9.83371 10.3109 10.2488 9.87872 10.5178 9.36411C10.6142 9.18066 10.653 8.96922 10.5955 8.76556C10.5458 8.58521 10.4058 8.38934 10.2379 8.3007C10.0576 8.20587 9.83839 8.15767 9.63939 8.22297C9.45438 8.28515 9.27249 8.40175 9.17766 8.5821H9.17767Z" fill="white"/>
</svg>
