<svg width="19" height="19" viewBox="0 0 19 19" fill="none" xmlns="http://www.w3.org/2000/svg">
<path d="M9.54413 18.4946C7.80723 18.4946 6.10934 17.9795 4.66516 17.0145C3.22098 16.0496 2.09538 14.678 1.43069 13.0733C0.766012 11.4687 0.592101 9.70291 0.930953 7.99938C1.26981 6.29586 2.1062 4.73107 3.33438 3.50289C4.56255 2.27472 6.12734 1.43832 7.83086 1.09947C9.53439 0.760619 11.3001 0.93453 12.9048 1.59921C14.5095 2.2639 15.8811 3.3895 16.846 4.83368C17.811 6.27785 18.326 7.97575 18.326 9.71265C18.3235 12.041 17.3975 14.2732 15.7511 15.9196C14.1047 17.566 11.8725 18.4921 9.54413 18.4946ZM9.54413 3.12621C8.24146 3.12621 6.96803 3.5125 5.8849 4.23622C4.80177 4.95995 3.95757 5.98861 3.45905 7.19213C2.96054 8.39564 2.83011 9.71995 3.08425 10.9976C3.33839 12.2752 3.96568 13.4488 4.88681 14.37C5.80794 15.2911 6.98154 15.9184 8.25918 16.1725C9.53682 16.4267 10.8611 16.2962 12.0647 15.7977C13.2682 15.2992 14.2968 14.455 15.0206 13.3719C15.7443 12.2887 16.1306 11.0153 16.1306 9.71265C16.1286 7.96641 15.4341 6.29225 14.1993 5.05747C12.9645 3.82269 11.2904 3.12815 9.54413 3.12621Z" fill="#333333"/>
<path d="M8.44532 11.2891C8.4345 10.7246 8.57506 10.1676 8.85241 9.67582C9.12975 9.18406 9.53375 8.77557 10.0224 8.4928C10.177 8.40835 10.3064 8.28451 10.3977 8.13385C10.4889 7.98319 10.5386 7.81108 10.5418 7.63499C10.545 7.45889 10.5016 7.28508 10.4159 7.1312C10.3302 6.97732 10.2054 6.84885 10.054 6.75883C9.9026 6.66881 9.73009 6.62045 9.55398 6.61865C9.37786 6.61685 9.2044 6.66168 9.05122 6.74859C8.89803 6.8355 8.77056 6.9614 8.68175 7.11349C8.59295 7.26559 8.54597 7.43848 8.54558 7.6146H6.3501C6.35002 7.147 6.45262 6.68508 6.65066 6.26149C6.8487 5.83789 7.13734 5.46295 7.49619 5.16315C7.85504 4.86335 8.27535 4.64601 8.72742 4.52648C9.17949 4.40695 9.65229 4.38815 10.1124 4.47141C10.7624 4.58865 11.36 4.90452 11.823 5.3755C12.286 5.84649 12.5916 6.44943 12.6977 7.1013C12.8038 7.75317 12.7052 8.4219 12.4155 9.0154C12.1257 9.6089 11.6591 10.098 11.0799 10.4153C10.937 10.5102 10.8214 10.6407 10.7444 10.7939C10.6673 10.9472 10.6317 11.1178 10.6408 11.2891H8.44532Z" fill="#333333"/>
<path d="M10.6896 12.6358H8.49414V14.8312H10.6896V12.6358Z" fill="#333333"/>
</svg>
