<svg width="50" height="50" viewBox="0 0 50 50" fill="none" xmlns="http://www.w3.org/2000/svg">
<path d="M39.8674 4.24058V7.74106H13.0303C11.4832 7.74106 9.99926 8.35573 8.90471 9.44956C7.81081 10.544 7.19621 12.0281 7.19621 13.5752V40.4122H3.69573C2.76748 40.4122 1.87668 40.0434 1.22045 39.3871C0.56423 38.7307 0.195312 37.8399 0.195312 36.9118V4.24065C0.195312 3.3124 0.56411 2.4216 1.22045 1.76538C1.8768 1.10915 2.7676 0.740234 3.69573 0.740234H36.3669C37.2951 0.740234 38.1859 1.10903 38.8422 1.76538C39.4984 2.42172 39.8673 3.31252 39.8673 4.24065L39.8674 4.24058Z" fill="#333333"/>
<path d="M45.7033 10.0751H13.0322C12.1039 10.0751 11.2131 10.4439 10.5569 11.1002C9.90066 11.7566 9.53174 12.6474 9.53174 13.5755V46.2466C9.53174 47.1749 9.90054 48.0657 10.5569 48.7219C11.2132 49.3781 12.104 49.7471 13.0322 49.7471H45.7033C46.6316 49.7471 47.5224 49.3783 48.1786 48.7219C48.8348 48.0656 49.2037 47.1748 49.2037 46.2466V13.5755C49.2037 12.6472 48.8349 11.7564 48.1786 11.1002C47.5222 10.444 46.6314 10.0751 45.7033 10.0751ZM39.8692 22.9102C39.8692 23.5545 39.3467 24.077 38.7023 24.077C38.058 24.077 37.5355 23.5545 37.5355 22.9102V19.4097H30.5346V40.4126H34.035C34.6794 40.4126 35.2019 40.935 35.2019 41.5794C35.2019 42.2238 34.6794 42.7462 34.035 42.7462H24.7004C24.0561 42.7462 23.5336 42.2238 23.5336 41.5794C23.5336 40.935 24.0561 40.4126 24.7004 40.4126H28.2009V19.4097H21.1999V22.9102C21.1999 23.5545 20.6775 24.077 20.0331 24.077C19.3888 24.077 18.8663 23.5545 18.8663 22.9102V18.2429C18.8663 17.5985 19.3888 17.076 20.0331 17.076H38.7023C39.0118 17.076 39.3087 17.199 39.5275 17.4177C39.7462 17.6365 39.8692 17.9334 39.8692 18.2429V22.9102Z" fill="#4DAAA7"/>
</svg>
