<svg width="13" height="12" viewBox="0 0 13 12" fill="none" xmlns="http://www.w3.org/2000/svg">
<path d="M2.71734 6.64675V10.7069C2.71734 10.7997 2.79255 10.8749 2.88534 10.8749H3.71747C4.56187 10.8749 5.40176 10.9972 6.21109 11.238L6.22083 11.2408C7.41258 11.5941 9.27864 11.4828 10.4403 11.1917C10.8471 11.0897 11.1875 10.8738 11.1875 10.5184V10.3726C11.1894 10.204 11.1244 10.0415 11.0067 9.92087C10.8888 9.80021 10.7279 9.73123 10.5594 9.72924H11.0941C11.2627 9.72717 11.4236 9.65819 11.5414 9.53753C11.6592 9.41688 11.7242 9.25437 11.7222 9.08585V8.93995C11.7242 8.77141 11.6592 8.60892 11.5414 8.48827C11.4236 8.36762 11.2628 8.29864 11.0941 8.29665H11.5316C11.7003 8.29458 11.8611 8.22559 11.9789 8.10494C12.0967 7.98428 12.1617 7.82178 12.1597 7.65326V7.50736C12.1597 7.15206 11.9118 6.90958 11.5316 6.86396L11.0859 6.81049C11.2496 6.82086 11.4104 6.7636 11.5307 6.65205C11.6509 6.5406 11.7201 6.38459 11.7222 6.22057V6.07476C11.7198 5.90523 11.6557 5.7423 11.5419 5.61667C11.4281 5.49096 11.2725 5.41098 11.1039 5.39186C10.467 5.30935 9.97468 5.42045 9.52561 5.43442C8.15631 5.47726 8.19417 5.275 8.18083 5.16535C8.16469 5.03162 8.22528 4.87192 8.43935 4.58364C8.85398 3.92969 9.10754 3.72897 9.17671 2.86121H9.1768C9.21196 2.3445 9.10069 1.82826 8.85587 1.37178C8.73603 1.13327 8.50644 0.96888 8.24205 0.93236C8.0149 0.909005 7.74023 0.995753 7.68693 1.2504C7.73382 1.51705 7.74175 1.78911 7.71037 2.05809C7.45067 2.60266 7.05571 3.07147 6.56317 3.41991C5.54592 4.10019 4.90756 4.28522 4.12727 5.1711H4.12736C3.89533 5.43359 3.70218 5.72802 3.55375 6.04534C3.49522 6.17384 3.40126 6.28295 3.28287 6.35978C3.16438 6.43661 3.02642 6.478 2.88528 6.4789C2.79249 6.4789 2.71729 6.55411 2.71729 6.6469L2.71734 6.64675Z" fill="white"/>
<path d="M1.3627 11.7434C1.58625 11.7434 1.80069 11.6546 1.95884 11.4965C2.11692 11.3384 2.20574 11.1239 2.20574 10.9003V6.45303C2.20574 6.15184 2.04505 5.87349 1.78416 5.72288C1.52337 5.57229 1.20199 5.57229 0.941106 5.72288C0.680225 5.87347 0.519531 6.15184 0.519531 6.45303V10.9003C0.519531 11.124 0.608355 11.3384 0.766423 11.4965C0.924591 11.6546 1.13903 11.7434 1.36266 11.7434H1.3627Z" fill="white"/>
</svg>
