<svg width="17" height="17" viewBox="0 0 17 17" fill="none" xmlns="http://www.w3.org/2000/svg">
<path d="M8.55141 0.918457C4.18968 0.918457 0.640625 4.46717 0.640625 8.82925C0.640625 13.1913 4.18968 16.74 8.55141 16.74C12.9131 16.74 16.4622 13.1913 16.4622 8.82925C16.4622 4.46717 12.9131 0.918457 8.55141 0.918457ZM12.3595 6.52005L8.40393 12.0576C8.26871 12.247 8.0571 12.3671 7.82533 12.3864C7.80361 12.3883 7.78202 12.3891 7.76043 12.3891C7.55185 12.3891 7.35013 12.3064 7.20116 12.1573L4.82789 9.78403C4.51891 9.47505 4.51891 8.97444 4.82789 8.66533C5.13686 8.35636 5.63748 8.35636 5.94658 8.66533L7.6594 10.3782L11.0725 5.60076C11.3266 5.24582 11.8212 5.16385 12.1757 5.41654C12.5308 5.67056 12.6135 6.16467 12.3594 6.52001L12.3595 6.52005Z" fill="#333333"/>
</svg>
