<svg width="10" height="10" viewBox="0 0 10 10" fill="none" xmlns="http://www.w3.org/2000/svg">
<path d="M3.74332 9.02112C3.57356 9.02112 3.41446 8.95748 3.29775 8.84078L0.518225 5.97638C0.253003 5.7324 0.242413 5.31865 0.496986 5.05343C0.740971 4.78821 1.15472 4.77762 1.41994 5.03219L3.45684 6.48559C3.57354 6.59171 3.75389 6.57047 3.84935 6.44319L8.67639 0.481002C8.88854 0.194544 9.30229 0.130909 9.58875 0.353718C9.87521 0.565877 9.93884 0.979623 9.71603 1.26608L4.26307 8.75594C4.14637 8.90446 3.97662 8.99993 3.79627 9.01057C3.7751 9.02116 3.76444 9.02116 3.74328 9.02116L3.74332 9.02112Z" fill="#333333"/>
</svg>
